<svg width="24" height="24" viewBox="0 0 24 24" fill="none" xmlns="http://www.w3.org/2000/svg">
<g clip-path="url(#clip0_351_734)">
<path d="M14.1214 12.0002L23.561 2.56161C24.147 1.97565 24.147 1.02563 23.561 0.439714C22.975 -0.146246 22.025 -0.146246 21.4391 0.439714L12.0005 9.8793L2.56186 0.439714C1.9759 -0.146246 1.02587 -0.146246 0.439959 0.439714C-0.145955 1.02567 -0.146002 1.9757 0.439959 2.56161L9.87954 12.0002L0.439959 21.4389C-0.146002 22.0248 -0.146002 22.9748 0.439959 23.5608C1.02592 24.1467 1.97594 24.1467 2.56186 23.5608L12.0005 14.1211L21.4391 23.5608C22.025 24.1467 22.975 24.1467 23.5609 23.5608C24.1469 22.9748 24.1469 22.0248 23.5609 21.4389L14.1214 12.0002Z" fill="#C81517"/>
</g>
<defs>
<clipPath id="clip0_351_734">
<rect width="24" height="24" fill="white"/>
</clipPath>
</defs>
</svg>
