<svg width="32" height="33" viewBox="0 0 32 33" fill="none" xmlns="http://www.w3.org/2000/svg">
<path d="M27 0.23584H5C2.23858 0.23584 0 2.47442 0 5.23584V27.2358C0 29.9973 2.23858 32.2358 5 32.2358H27C29.7614 32.2358 32 29.9973 32 27.2358V5.23584C32 2.47442 29.7614 0.23584 27 0.23584Z" fill="#1877F2"/>
<path d="M24 16.2358C24 11.8358 20.4 8.23584 16 8.23584C11.6 8.23584 8 11.8358 8 16.2358C8 20.2358 10.9 23.5358 14.7 24.1358V18.5358H12.7V16.2358H14.7V14.4358C14.7 12.4358 15.9 11.3358 17.7 11.3358C18.6 11.3358 19.5 11.5358 19.5 11.5358V13.5358H18.5C17.5 13.5358 17.2 14.1358 17.2 14.7358V16.2358H19.4L19 18.5358H17.1V24.2358C21.1 23.6358 24 20.2358 24 16.2358Z" fill="white"/>
</svg>
