<svg width="242" height="100" viewBox="0 0 242 100" fill="none" xmlns="http://www.w3.org/2000/svg">
<path d="M161.834 59.5277C161.834 62.9788 161.218 65.7644 159.986 67.8597C158.753 69.9551 156.978 71.4588 154.612 72.3462C152.245 73.2583 149.386 73.702 146.008 73.702C144.16 73.702 142.187 73.6034 140.141 73.3816C138.095 73.1597 136.148 72.9132 134.274 72.5927C132.426 72.2723 130.848 72.0011 129.591 71.7299L130.158 63.0528C131.513 63.176 133.067 63.3486 134.866 63.5704C136.666 63.7923 138.465 63.9649 140.289 64.1128C142.113 64.2607 143.691 64.3346 145.047 64.3346C146.353 64.3346 147.389 64.1867 148.178 63.8909C148.966 63.5951 149.533 63.1514 149.879 62.5844C150.248 62.0174 150.421 61.2779 150.421 60.3411C150.421 59.577 150.248 58.9853 149.903 58.5416C149.558 58.0979 148.917 57.7281 147.98 57.4077C147.044 57.0872 145.663 56.7914 143.888 56.4956C141.152 56.0272 138.835 55.4602 136.961 54.8193C135.088 54.1537 133.584 53.3402 132.426 52.3542C131.292 51.3681 130.454 50.1109 129.96 48.5826C129.443 47.0542 129.196 45.23 129.196 43.0607C129.196 41.1626 129.369 39.511 129.714 38.0566C129.911 37.2431 130.158 36.5035 130.478 35.838C130.675 35.4189 130.873 35.0245 131.119 34.6547C131.218 34.4821 131.341 34.3096 131.464 34.1617C132.721 32.4361 134.447 31.2035 136.592 30.4887C138.958 29.6752 141.768 29.2808 145.022 29.2808C146.551 29.2808 148.252 29.3547 150.174 29.5273C152.097 29.6998 153.971 29.897 155.819 30.0942C157.644 30.3161 159.246 30.538 160.602 30.7845L160.158 39.6589C158.901 39.5356 157.397 39.3877 155.696 39.2398C153.995 39.0919 152.27 38.944 150.544 38.8207C148.819 38.6975 147.29 38.6235 145.984 38.6235C144.751 38.6235 143.74 38.7468 142.902 38.9686C142.089 39.2152 141.497 39.5603 141.127 40.004C140.758 40.4724 140.585 41.0886 140.585 41.8528C140.585 42.691 140.782 43.3565 141.152 43.8496C141.522 44.3426 142.187 44.737 143.149 45.0575C144.11 45.3779 145.466 45.7477 147.241 46.1668C149.977 46.7584 152.294 47.3747 154.143 47.9909C155.992 48.6319 157.496 49.3961 158.605 50.3328C159.714 51.2695 160.528 52.4528 161.046 53.9072C161.588 55.3863 161.834 57.2598 161.834 59.5277Z" fill="#FFB30A"/>
<path d="M177.29 73.7265C174.875 73.7265 172.927 73.406 171.399 72.7404C169.87 72.0748 168.786 70.9162 168.096 69.2646C167.43 67.5883 167.085 65.2711 167.085 62.2637V49.9875H163.93V41.1131H167.085V33.5698H177.981V41.1131H184.809V49.9875H177.981V59.6014C177.981 60.8339 178.055 61.7953 178.178 62.4856C178.301 63.1758 178.572 63.6688 178.991 63.94C179.41 64.2111 180.051 64.359 180.89 64.359C181.111 64.359 181.456 64.359 181.974 64.3344C182.492 64.3097 183.01 64.2851 183.552 64.2604C184.094 64.2358 184.513 64.2111 184.76 64.1618L184.957 72.7651C184.291 72.8883 183.478 73.0362 182.516 73.1841C181.555 73.332 180.618 73.4553 179.706 73.5539C178.77 73.6772 177.956 73.7265 177.29 73.7265Z" fill="#FFB30A"/>
<path d="M197.998 73.7267C194.398 73.7267 191.736 72.8885 189.961 71.1876C188.186 69.5114 187.299 66.8737 187.299 63.3486C187.299 60.8095 187.767 58.8867 188.729 57.5309C189.69 56.1751 191.071 55.2384 192.87 54.6714C194.694 54.1291 196.864 53.784 199.403 53.6607L205.787 53.217V51.8119C205.787 50.7519 205.467 50.0123 204.801 49.5933C204.136 49.1742 203.224 48.9523 202.04 48.9523C200.783 48.9523 199.329 49.0016 197.726 49.0756C196.124 49.1495 194.571 49.2728 193.043 49.3961C191.514 49.5193 190.183 49.6426 189.049 49.7658L188.729 42.2226C189.912 41.9268 191.317 41.631 192.944 41.3351C194.571 41.0393 196.272 40.7928 198.047 40.5956C199.822 40.3984 201.498 40.2998 203.051 40.2998C205.886 40.2998 208.326 40.6203 210.372 41.2612C212.418 41.9021 213.971 42.9868 215.056 44.5644C216.141 46.1175 216.658 48.3114 216.658 51.1463V64.5811C216.782 64.9509 217.077 65.2714 217.521 65.5425C217.965 65.789 218.433 65.9616 218.951 66.0602L218.754 73.209C218.088 73.2583 217.349 73.3076 216.609 73.4062C215.845 73.4802 215.13 73.5295 214.489 73.5295C213.824 73.5295 213.306 73.5048 212.887 73.4555C211.63 73.4062 210.57 73.1597 209.731 72.716C208.893 72.2723 208.277 71.8286 207.907 71.4095C207.266 71.7053 206.428 72.0258 205.368 72.3955C204.308 72.7653 203.15 73.0611 201.892 73.3076C200.586 73.6034 199.304 73.7267 197.998 73.7267ZM200.783 65.9862C201.424 65.9862 202.04 65.9123 202.657 65.7644C203.273 65.6165 203.864 65.4439 204.431 65.2221C204.998 65.0002 205.442 64.8276 205.787 64.6551V59.4537L201.153 59.8974C200.142 59.9714 199.378 60.2918 198.91 60.8095C198.417 61.3272 198.17 62.0667 198.17 63.0035C198.17 63.9402 198.392 64.6551 198.811 65.1974C199.23 65.7397 199.896 65.9862 200.783 65.9862Z" fill="#FFB30A"/>
<path d="M222.747 72.9625V41.1133H233.569V44.5398C234.234 43.9975 235.048 43.4058 236.009 42.7896C236.971 42.1733 237.957 41.631 239.017 41.1872C240.077 40.7189 241.063 40.4231 241.999 40.2998V50.6286C241.112 50.7026 240.151 50.9244 239.091 51.2695C238.031 51.6147 237.045 51.9844 236.083 52.4035C235.122 52.8226 234.308 53.217 233.593 53.5374V72.9872H222.747V72.9625Z" fill="#FFB30A"/>
<path d="M140.092 95.2472H131.267V80.4072H134.891V92.5849H140.092V95.2472Z" fill="#C90000"/>
<path d="M148.696 95.4689C146.946 95.4689 145.664 94.9758 144.875 93.9651C144.086 92.9545 143.667 91.5986 143.667 89.8731C143.667 88.7638 143.864 87.7777 144.234 86.8903C144.604 86.0028 145.195 85.3126 145.96 84.7949C146.724 84.2773 147.71 84.0308 148.844 84.0308C150.569 84.0308 151.851 84.5238 152.64 85.5345C153.429 86.5205 153.848 87.901 153.848 89.6512C153.848 90.7359 153.651 91.7219 153.281 92.6093C152.911 93.4968 152.32 94.187 151.555 94.7047C150.816 95.1977 149.854 95.4689 148.696 95.4689ZM148.893 92.8559C149.435 92.8559 149.78 92.56 149.953 91.9684C150.126 91.3768 150.2 90.6619 150.2 89.8484C150.2 89.2568 150.15 88.7145 150.076 88.2214C150.002 87.7284 149.854 87.334 149.633 87.0628C149.411 86.767 149.09 86.6438 148.671 86.6438C148.129 86.6438 147.784 86.9396 147.611 87.5066C147.439 88.0735 147.365 88.7884 147.365 89.6512C147.365 90.2428 147.414 90.7852 147.488 91.2535C147.562 91.7466 147.734 92.141 147.956 92.4368C148.178 92.7079 148.474 92.8559 148.893 92.8559Z" fill="#C90000"/>
<path d="M164.004 99.9551C162.673 99.9551 161.267 99.6593 159.764 99.0431L160.577 96.3561C161.218 96.5779 161.76 96.7505 162.253 96.8738C162.747 96.997 163.24 97.071 163.782 97.071C164.373 97.071 164.842 96.8984 165.212 96.5779C165.581 96.2328 165.754 95.7645 165.754 95.1235C165.754 94.458 165.655 93.8663 165.433 93.324C165.187 93.9896 164.817 94.4826 164.324 94.8524C163.831 95.1975 163.215 95.3947 162.451 95.3947C161.021 95.3947 159.961 94.9017 159.246 93.891C158.556 92.8803 158.211 91.5738 158.211 89.9222C158.211 88.2459 158.728 86.8654 159.739 85.7561C160.75 84.6468 162.081 84.1045 163.708 84.1045C164.595 84.1045 165.483 84.2031 166.395 84.3757C167.307 84.5482 167.899 84.6715 168.145 84.7454L168.071 90.2673C168.071 90.7356 168.12 91.1547 168.194 91.5491C168.268 91.9435 168.367 92.338 168.466 92.7324C168.564 93.1268 168.663 93.5212 168.737 93.9156C168.811 94.31 168.86 94.7538 168.86 95.2221C168.86 96.7505 168.416 97.9091 167.553 98.7472C166.666 99.5361 165.483 99.9551 164.004 99.9551ZM163.018 92.831C163.486 92.831 163.856 92.4612 164.152 91.7217C164.447 90.9821 164.595 90.144 164.595 89.1826V86.8161C164.497 86.7668 164.349 86.7175 164.176 86.6929C164.004 86.6682 163.831 86.6436 163.708 86.6436C162.993 86.6436 162.525 86.9394 162.253 87.5063C161.982 88.0733 161.884 88.8129 161.884 89.7003C161.884 90.2426 161.908 90.7603 161.958 91.2287C162.007 91.697 162.106 92.0914 162.253 92.3873C162.426 92.6831 162.673 92.831 163.018 92.831Z" fill="#C90000"/>
<path d="M175.392 82.8968C174.776 82.8968 174.308 82.6996 173.987 82.3298C173.667 81.9601 173.494 81.5163 173.494 80.9987C173.494 80.407 173.667 79.9387 173.987 79.5443C174.332 79.1498 174.825 78.9526 175.466 78.9526C176.058 78.9526 176.526 79.1252 176.871 79.495C177.192 79.8647 177.364 80.3331 177.364 80.8754C177.364 81.4424 177.192 81.9108 176.847 82.3052C176.526 82.6996 176.033 82.8968 175.392 82.8968ZM176.502 95.3456C175.688 95.3456 174.998 95.1238 174.48 94.68C173.963 94.2363 173.691 93.6447 173.691 92.8559V84.228H177.167V91.8698C177.167 92.1903 177.217 92.4121 177.315 92.5354C177.414 92.6586 177.562 92.7079 177.759 92.7079C177.882 92.7079 178.005 92.7079 178.104 92.6833C178.203 92.6586 178.301 92.634 178.326 92.634L178.622 94.8033C178.597 94.8526 178.375 94.9512 177.981 95.0991C177.611 95.2717 177.093 95.3456 176.502 95.3456Z" fill="#C90000"/>
<path d="M186.683 95.4689C185.672 95.4689 184.785 95.3456 184.021 95.0991C183.257 94.8526 182.69 94.6554 182.32 94.4582L183.454 91.9438C183.503 91.9684 183.552 91.9931 183.651 92.0424C183.922 92.1656 184.267 92.3382 184.711 92.5354C185.155 92.7326 185.598 92.8312 186.017 92.8312C186.313 92.8312 186.584 92.7819 186.782 92.6587C186.979 92.5354 187.077 92.3628 187.077 92.141C187.077 91.8698 186.954 91.6233 186.708 91.4015C186.461 91.1796 186.165 91.007 185.771 90.8591C184.686 90.4401 183.922 89.947 183.429 89.4047C182.936 88.8377 182.714 88.1722 182.714 87.3587C182.714 86.4219 183.059 85.6331 183.75 85.0168C184.44 84.4005 185.377 84.0801 186.609 84.0801C187.349 84.0801 188.014 84.154 188.606 84.3019C189.197 84.4498 189.691 84.5978 190.06 84.7457V84.7703L190.553 84.9675L190.578 84.9922H190.603L189.493 87.4573C189.444 87.4326 189.419 87.4326 189.395 87.3833C189.124 87.2354 188.778 87.0629 188.359 86.915C187.94 86.7424 187.521 86.6684 187.127 86.6684C186.88 86.6684 186.683 86.7177 186.535 86.8164C186.363 86.915 186.289 87.0875 186.289 87.3094C186.289 87.7531 186.831 88.1968 187.94 88.6405C188.828 88.9856 189.493 89.4294 189.962 89.947C190.43 90.4647 190.677 91.1303 190.677 91.9931C190.677 92.6094 190.529 93.201 190.233 93.7433C189.937 94.2856 189.493 94.7047 188.902 95.0252C188.31 95.3456 187.546 95.4689 186.683 95.4689Z" fill="#C90000"/>
<path d="M199.822 95.3456C198.712 95.3456 197.874 95.1237 197.233 94.6554C196.617 94.2116 196.297 93.4475 196.297 92.3628V86.8903H194.571V84.3512H196.371L196.74 82.0833L199.748 81.4424V84.3512H202.336L201.917 86.8903H199.748V91.7712C199.748 92.3875 200.093 92.7079 200.758 92.7326C201.005 92.7326 201.227 92.7079 201.473 92.6586C201.72 92.6093 201.917 92.5847 202.09 92.5354C202.139 92.5354 202.188 92.5354 202.238 92.5107C202.262 92.5107 202.262 92.5107 202.287 92.4861H202.336L202.928 94.8033C202.632 94.9019 202.238 95.0251 201.72 95.1484C201.202 95.2716 200.561 95.3456 199.822 95.3456Z" fill="#C90000"/>
<path d="M211.679 95.444C210.496 95.444 209.534 95.2221 208.795 94.7537C208.055 94.31 207.513 93.6691 207.192 92.8556C206.847 92.0421 206.675 91.1054 206.675 90.0454C206.675 88.7142 206.921 87.6296 207.414 86.7175C207.907 85.83 208.573 85.1398 209.411 84.6961C210.249 84.2277 211.186 84.0059 212.221 84.0059C213.602 84.0059 214.588 84.3263 215.179 84.9426C215.771 85.5835 216.067 86.3724 216.067 87.3091C216.067 88.3691 215.574 89.2812 214.563 90.0207C213.552 90.7603 212.172 91.2286 210.422 91.3765C210.496 91.8203 210.693 92.1654 210.989 92.4365C211.285 92.7077 211.679 92.8556 212.221 92.8556C212.64 92.8556 213.109 92.8063 213.577 92.683C214.07 92.5598 214.465 92.4612 214.834 92.3379C215.081 92.2393 215.229 92.19 215.303 92.1654L215.327 92.1407H215.352L216.018 94.4086H215.993C215.993 94.4333 215.993 94.4333 215.968 94.4333L215.401 94.6551C215.007 94.803 214.489 94.9756 213.824 95.1481C213.183 95.37 212.468 95.444 211.679 95.444ZM210.249 89.2072C211.112 89.1579 211.728 88.9361 212.098 88.5417C212.468 88.1472 212.64 87.7775 212.64 87.4324C212.64 86.8654 212.369 86.5696 211.827 86.5203C211.457 86.5203 211.161 86.6682 210.939 86.9393C210.718 87.2105 210.545 87.5556 210.446 87.9747C210.323 88.3445 210.274 88.7635 210.249 89.2072Z" fill="#C90000"/>
<path d="M225.385 95.4442C224.202 95.4442 223.216 95.2224 222.476 94.7786C221.737 94.3349 221.195 93.694 220.849 92.8805C220.504 92.067 220.332 91.1303 220.332 90.0703C220.332 88.7391 220.554 87.6545 221.022 86.7424C221.49 85.8549 222.131 85.1647 222.92 84.721C223.734 84.2526 224.621 84.0308 225.656 84.0308C226.371 84.0308 226.988 84.1787 227.53 84.4498C228.072 84.7456 228.516 85.1154 228.861 85.5838L227.16 87.3587C226.988 87.1368 226.815 86.9642 226.618 86.8163C226.421 86.6684 226.174 86.5945 225.878 86.5945C225.385 86.5945 224.991 86.767 224.67 87.0875C224.227 87.5559 224.005 88.4187 224.005 89.6759C224.005 90.9331 224.251 91.7959 224.744 92.2889C225.089 92.6586 225.582 92.8312 226.174 92.8312C226.495 92.8312 226.84 92.7819 227.234 92.6586C227.629 92.5354 227.875 92.4614 227.998 92.4121H228.023L228.664 94.7047C228.639 94.7293 228.516 94.7786 228.245 94.9019C227.974 95.0251 227.604 95.1484 227.111 95.2717C226.618 95.3949 226.051 95.4442 225.385 95.4442Z" fill="#C90000"/>
<path d="M236.774 95.4689C235.763 95.4689 234.876 95.3456 234.112 95.0991C233.347 94.8526 232.78 94.6554 232.411 94.4582L233.545 91.9438C233.594 91.9684 233.643 91.9931 233.742 92.0424C234.013 92.1656 234.358 92.3382 234.802 92.5354C235.246 92.7326 235.689 92.8312 236.108 92.8312C236.404 92.8312 236.675 92.7819 236.873 92.6587C237.07 92.5354 237.168 92.3628 237.168 92.141C237.168 91.8698 237.045 91.6233 236.799 91.4015C236.552 91.1796 236.256 91.007 235.862 90.8591C234.777 90.4401 234.013 89.947 233.52 89.4047C233.027 88.8377 232.805 88.1722 232.805 87.3587C232.805 86.4219 233.15 85.6331 233.84 85.0168C234.531 84.4005 235.467 84.0801 236.7 84.0801C237.439 84.0801 238.105 84.154 238.697 84.3019C239.288 84.4498 239.781 84.5978 240.151 84.7457V84.7703L240.644 84.9675L240.669 84.9922H240.693L239.584 87.4573C239.535 87.4326 239.51 87.4326 239.486 87.3833C239.214 87.2354 238.869 87.0629 238.45 86.915C238.031 86.7424 237.612 86.6684 237.218 86.6684C236.971 86.6684 236.774 86.7177 236.626 86.8164C236.453 86.915 236.379 87.0875 236.379 87.3094C236.379 87.7531 236.922 88.1968 238.031 88.6405C238.919 88.9856 239.584 89.4294 240.052 89.947C240.521 90.4647 240.767 91.1303 240.767 91.9931C240.767 92.6094 240.619 93.201 240.324 93.7433C240.028 94.2856 239.584 94.7047 238.992 95.0252C238.376 95.2963 237.637 95.4689 236.774 95.4689Z" fill="#C90000"/>
<path d="M27.8806 55.3616C33.0327 51.1216 38.5299 47.5472 44.1997 44.5645L38.9736 59.1579L38.2094 61.2779L37.4206 63.4718L26.1551 95.0006H0.000244141C6.43418 77.7202 16.3193 64.8523 27.8806 55.3616Z" fill="#CC0000"/>
<path d="M60.1244 0.0444336L44.7668 42.9866C41.1431 44.8355 37.6919 46.8815 34.4133 49.1001C32.4166 50.4559 30.4691 51.861 28.6203 53.3401C18.7352 61.1298 10.7483 70.6698 4.70874 81.8368L33.9449 0.0444336H60.1244Z" fill="#CC0000"/>
<path opacity="0.42" d="M27.8804 55.3616C33.0325 51.1216 38.5297 47.5472 44.1995 44.5645L38.9734 59.1579L38.2092 61.2779L37.4204 63.4718L26.1549 95.0006H13.7061L17.3544 84.7704L27.8804 55.3616Z" fill="url(#paint0_linear_60_870)"/>
<path opacity="0.42" d="M60.1245 0.0444336L44.7668 42.9866C41.1431 44.8355 37.692 46.8815 34.4134 49.1001C32.4166 50.4559 30.4692 51.861 28.6204 53.3401L47.651 0.0444336H60.1245Z" fill="url(#paint1_linear_60_870)"/>
<path d="M105.827 37.2183L85.1698 95.0004H59.015L75.4326 49.0508C75.8024 48.8782 76.1475 48.681 76.4926 48.5085C80.5108 46.5117 84.6768 44.6382 88.8921 42.9373C89.2126 42.8141 89.5084 42.6908 89.8289 42.5675C95.2028 40.4722 100.577 38.6727 105.827 37.2183Z" fill="#CC0000"/>
<path d="M119.114 0.0444336L108.662 29.256C108.539 29.256 108.416 29.256 108.268 29.256C107.479 29.2313 106.666 29.2313 105.852 29.2313C101.785 29.2313 97.6679 29.4039 93.5758 29.7243C93.4033 29.749 93.2307 29.749 93.0581 29.7737C89.2619 30.0941 85.4656 30.5625 81.7679 31.1541L92.9349 0.0444336H119.114Z" fill="#CC0000"/>
<path opacity="0.42" d="M105.827 37.2183L85.1698 95.0004H70.2805L88.8674 42.962C89.1879 42.8387 89.4837 42.7155 89.8042 42.5922C95.2028 40.4722 100.577 38.6727 105.827 37.2183Z" fill="url(#paint2_linear_60_870)"/>
<path d="M123.207 47.917L105.482 95.0006H98.5061H90.1001L103.214 60.4644L103.51 59.7002L104.472 57.1365L104.718 56.4709L105.408 54.7207L113.05 51.7872L114.825 51.097L123.207 47.917Z" fill="#CC0000"/>
<path d="M126.14 39.2642L123.65 46.1172L115.959 49.0753L106.395 52.773H106.37C106.197 52.8223 106 52.8716 105.828 52.9209L110.758 39.2642H126.14Z" fill="#CC0000"/>
<path opacity="0.42" d="M119.114 0.0444336L108.662 29.256C108.539 29.256 108.416 29.256 108.268 29.256C107.479 29.2313 106.666 29.2313 105.852 29.2313C101.785 29.2313 97.6679 29.4039 93.5758 29.7244L104.225 0.0444336H119.114Z" fill="url(#paint3_linear_60_870)"/>
<path d="M128.186 32.436C126.855 32.1895 125.006 31.9923 122.689 31.943C119.977 31.8691 116.625 31.9677 112.804 32.2881C112.73 32.2881 112.656 32.2881 112.582 32.3128C112.163 32.3374 111.744 32.3867 111.325 32.4114C110.067 32.5347 108.736 32.6579 107.38 32.8305C102.524 33.4221 97.1502 34.3588 91.4805 35.6653C87.4377 36.6021 83.2223 37.7607 78.9331 39.1658C78.3168 39.363 77.7251 39.5602 77.1089 39.7821C76.7144 39.9053 76.32 40.0532 75.9256 40.2011C75.7777 40.2504 75.6298 40.2997 75.4819 40.349C75.334 40.3983 75.1861 40.4477 75.0382 40.497C74.8163 40.5709 74.5945 40.6695 74.3479 40.7435C74.1261 40.8174 73.9289 40.8914 73.707 40.99C73.2633 41.1625 72.8196 41.3104 72.4005 41.483C71.9814 41.6309 71.5624 41.8035 71.1433 41.976C71.094 42.0007 71.0447 42.0253 70.9954 42.0253C70.7489 42.1239 70.4777 42.2225 70.2066 42.3458C70.1573 42.3704 70.1326 42.3704 70.0833 42.3951C69.6642 42.5676 69.2452 42.7402 68.8261 42.9128C68.8015 42.9128 68.7768 42.9374 68.7521 42.9374C68.5796 43.0114 68.407 43.0853 68.2591 43.1593C67.9633 43.2825 67.6675 43.4058 67.3717 43.529C67.1498 43.6276 66.928 43.7262 66.7061 43.8249C65.7694 44.2193 64.8326 44.663 63.8959 45.0821C63.6247 45.2053 63.3536 45.3286 63.0824 45.4518C62.6387 45.649 62.195 45.8709 61.7512 46.0928C61.4061 46.2653 61.061 46.4132 60.7159 46.5858C60.494 46.6844 60.2722 46.8076 60.075 46.9062C59.8531 47.0048 59.6312 47.1281 59.434 47.2267C59.3354 47.276 59.2368 47.3253 59.1382 47.3746C58.9164 47.4732 58.7192 47.5965 58.4973 47.6951C58.2754 47.7937 58.0782 47.9169 57.8564 48.0402C57.5605 48.1881 57.2647 48.3607 56.9936 48.5086C56.9689 48.5086 56.9689 48.5332 56.9443 48.5332C56.7471 48.6318 56.5745 48.7304 56.3773 48.8537C56.3526 48.8537 56.328 48.8783 56.3033 48.8783C55.9582 49.0509 55.6378 49.2481 55.2926 49.4453C55.1694 49.5193 55.0461 49.5686 54.9229 49.6425C54.7503 49.7411 54.5778 49.8397 54.3806 49.9383C54.2327 50.0123 54.0847 50.1109 53.9368 50.1848C53.6903 50.3327 53.4192 50.4806 53.1727 50.6286C52.9754 50.7272 52.8029 50.8504 52.6057 50.9737C52.162 51.2448 51.7182 51.516 51.2745 51.7872C51.0527 51.9351 50.8061 52.083 50.5843 52.2062C50.3624 52.3295 50.1652 52.4774 49.9434 52.6006C49.6968 52.7485 49.4503 52.9211 49.2038 53.069C48.5876 53.4634 47.9466 53.8825 47.3303 54.3016C47.1578 54.4248 47.0099 54.5234 46.8373 54.6467C46.295 55.0164 45.728 55.4109 45.1857 55.8053C44.9638 55.9532 44.742 56.1257 44.5448 56.2737C44.1997 56.5202 43.8545 56.7667 43.5094 57.0378C43.2629 57.2104 43.0411 57.383 42.7945 57.5555C42.6713 57.6541 42.5234 57.7527 42.4001 57.8513C42.1536 58.0485 41.8825 58.2457 41.6359 58.4429C41.3648 58.6402 41.1183 58.8374 40.8718 59.0592C40.7732 59.1332 40.6745 59.2071 40.5759 59.2811C40.4773 59.355 40.3787 59.429 40.2801 59.5276C39.9597 59.7741 39.6392 60.0453 39.3187 60.3164C38.949 60.6122 38.6039 60.9327 38.2341 61.2285C38.0615 61.3764 37.9136 61.4997 37.7657 61.6476C37.7411 61.6722 37.7411 61.6722 37.7164 61.6969C37.4946 61.8941 37.248 62.0913 37.0262 62.3132C36.755 62.5597 36.4839 62.7815 36.2127 63.0281C35.9415 63.2499 35.695 63.4964 35.4485 63.7429C35.3746 63.8169 35.276 63.8908 35.202 63.9648C34.9555 64.1867 34.709 64.4332 34.4625 64.655C34.2899 64.8029 34.142 64.9755 33.9695 65.1234C33.7476 65.3453 33.5257 65.5671 33.3039 65.789C32.9834 66.1094 32.6629 66.4053 32.3671 66.7257C32.3178 66.775 32.2685 66.8243 32.1946 66.8983C31.8988 67.1941 31.6029 67.4899 31.3318 67.7857C31.036 68.1062 30.7402 68.4266 30.4443 68.7225C30.395 68.7964 30.3211 68.8457 30.2718 68.9197C30.0006 69.2155 29.7295 69.5113 29.4583 69.8071C29.409 69.8811 29.335 69.9304 29.2857 70.0043C29.0146 70.3001 28.7434 70.6206 28.4723 70.9164C28.1518 71.2615 27.856 71.6313 27.5355 72.001C27.3383 72.2229 27.1411 72.4694 26.9685 72.6913C26.9685 72.6913 26.9685 72.7159 26.9439 72.7159C26.8946 72.7652 26.8453 72.8392 26.796 72.8885C26.722 72.9871 26.6481 73.0857 26.5741 73.1843C26.5248 73.2583 26.4755 73.3076 26.4262 73.3815C26.4016 73.4062 26.3769 73.4555 26.3523 73.4801C26.3276 73.5048 26.303 73.5541 26.2783 73.5787C26.0318 73.8745 25.8099 74.1703 25.5881 74.4662C25.4648 74.6387 25.3169 74.8113 25.1937 74.9838C25.1197 75.0578 25.0704 75.1564 24.9965 75.2303C24.8979 75.3536 24.8239 75.4769 24.7253 75.6001C24.5527 75.8466 24.3802 76.0685 24.2076 76.315C24.0844 76.4629 23.9611 76.6355 23.8625 76.7834C23.7392 76.9313 23.6406 77.1038 23.5174 77.2517C23.4927 77.2764 23.4681 77.301 23.4434 77.3503C23.3695 77.4489 23.3202 77.5229 23.2462 77.6215C23.2216 77.6708 23.1723 77.7201 23.1476 77.7694C23.123 77.8187 23.0983 77.8434 23.049 77.8927C23.0244 77.9173 23.0244 77.942 22.9997 77.9666C22.9751 77.9913 22.9751 78.0159 22.9504 78.0406C22.7532 78.3117 22.556 78.6075 22.3588 78.8787C22.1369 79.2238 21.8904 79.5689 21.6686 79.9141C21.5946 80.0127 21.5453 80.0866 21.496 80.1852C21.2741 80.5303 21.0523 80.8754 20.8304 81.2206C20.7811 81.2945 20.7318 81.3931 20.6825 81.4671C20.436 81.8368 20.2141 82.2313 19.9676 82.601C19.7211 83.0201 19.45 83.4638 19.2034 83.8829C19.0309 84.1787 18.8583 84.4745 18.7104 84.7703V84.795C18.6858 84.8196 18.6611 84.8689 18.6611 84.8936C18.6611 84.8936 18.6611 84.9182 18.6365 84.9182C18.6118 84.9675 18.5872 84.9922 18.5625 85.0415C18.4886 85.1894 18.39 85.3373 18.316 85.4852C18.1434 85.781 17.9709 86.1015 17.823 86.3973C17.749 86.5205 17.6997 86.6438 17.6258 86.7671C17.5025 86.9889 17.3793 87.2354 17.256 87.4573C17.2314 87.5312 17.1821 87.6052 17.1574 87.6545C17.1081 87.7531 17.0342 87.8764 16.9848 87.975C16.8123 88.3201 16.6151 88.6898 16.4425 89.035C16.3686 89.2075 16.27 89.3801 16.196 89.5526C16.0728 89.7991 15.9495 90.0457 15.8509 90.2922C15.8016 90.3908 15.7523 90.4894 15.703 90.588C15.6783 90.6373 15.6783 90.6619 15.6537 90.7112C15.5058 91.007 15.3825 91.2782 15.2593 91.574C15.1607 91.7712 15.0867 91.9684 14.9881 92.1656C14.8156 92.5354 14.6676 92.8805 14.5197 93.2503C14.4704 93.3242 14.4458 93.4229 14.4211 93.4968C14.3718 93.5954 14.3472 93.694 14.2979 93.7926C14.15 94.1377 14.0021 94.5075 13.8542 94.8773H0.000244141C6.43418 77.5969 16.3193 64.7536 27.8806 55.263C33.0327 51.023 38.5299 47.4486 44.1997 44.4658C56.328 38.0565 69.2452 34.3095 81.3735 32.2881C85.4163 31.6226 89.3851 31.1295 93.1814 30.8091C98.5553 30.3407 103.633 30.2174 108.268 30.2914C109.574 30.3161 110.832 30.3654 112.064 30.4147C112.261 30.4147 112.459 30.4393 112.656 30.4393C112.828 30.4393 113.001 30.464 113.173 30.464C113.198 30.464 113.223 30.464 113.247 30.464C113.42 30.464 113.617 30.4886 113.79 30.4886C117.167 30.6858 120.224 30.9816 122.861 31.376C124.907 31.7705 126.682 32.0909 128.186 32.436Z" fill="#FFB30A"/>
<path d="M25.1202 75.0576C24.9723 75.2548 24.7998 75.4767 24.6519 75.6739C24.7505 75.5506 24.8244 75.4274 24.923 75.3041C24.9723 75.2302 25.0463 75.1562 25.1202 75.0576Z" fill="#FFB30A"/>
<path d="M23.0493 77.8433C23.0246 77.8679 23 77.9172 22.9753 77.9419L22.9507 77.9665C23 77.9419 23.0246 77.8926 23.0493 77.8433Z" fill="#FFB30A"/>
<path d="M26.3769 73.4307C26.3523 73.4553 26.3276 73.48 26.303 73.5293C26.303 73.5293 26.303 73.5293 26.2783 73.5539C26.3276 73.5046 26.3523 73.4553 26.3769 73.4307Z" fill="#FFB30A"/>
<path d="M51.2747 51.8115C51.2501 51.8115 51.2501 51.8362 51.2254 51.8362C51.0035 51.9594 50.8063 52.1073 50.5845 52.2306C50.831 52.1073 51.0528 51.9594 51.2747 51.8115Z" fill="#FFB30A"/>
<path d="M25.1202 75.0576C24.9723 75.2548 24.7998 75.4767 24.6519 75.6739C24.7505 75.5506 24.8244 75.4274 24.923 75.3041C24.9723 75.2302 25.0463 75.1562 25.1202 75.0576Z" fill="url(#paint4_linear_60_870)"/>
<path d="M128.186 32.4359C126.411 32.4359 124.463 32.5592 122.368 32.7811C119.237 33.1015 115.762 33.6931 112.039 34.5066C111.941 34.5313 111.817 34.5559 111.719 34.5806C111.275 34.6792 110.831 34.7778 110.388 34.901C109.056 35.2215 107.676 35.5666 106.296 35.9364C100.946 37.3662 95.2272 39.2643 89.4096 41.5568C84.9724 43.3071 80.4612 45.3038 75.9994 47.5224C54.4543 58.2703 33.846 74.4414 26.2042 95.0004H13.7061C13.854 94.6307 14.0019 94.2855 14.1498 93.9158C14.1991 93.8172 14.2237 93.7186 14.273 93.62C14.2977 93.5214 14.347 93.4474 14.3716 93.3734C14.5195 93.0037 14.6921 92.6339 14.84 92.2888C14.9386 92.0916 15.0126 91.8944 15.1112 91.6972C15.2344 91.4014 15.3823 91.1055 15.5056 90.8344C15.5302 90.7851 15.5302 90.7604 15.5549 90.7111C15.6042 90.6125 15.6535 90.5139 15.7028 90.4153C15.826 90.1688 15.9247 89.9223 16.0479 89.6758C16.1219 89.5032 16.2205 89.3307 16.2944 89.1581C16.467 88.813 16.6395 88.4432 16.8367 88.0981C16.886 87.9995 16.96 87.8762 17.0093 87.7776C17.034 87.7037 17.0833 87.6297 17.1079 87.5804C17.2312 87.3586 17.3544 87.1121 17.4777 86.8902C17.5516 86.7669 17.6009 86.6437 17.6749 86.5204C17.8474 86.2246 17.9953 85.9042 18.1679 85.6083C18.2419 85.4604 18.3158 85.3125 18.4144 85.1646C18.4391 85.1153 18.4637 85.0907 18.4884 85.0414C18.4884 85.0414 18.4884 85.0167 18.513 85.0167C18.5377 84.9921 18.5377 84.9428 18.5623 84.9181V84.8935C18.7349 84.5977 18.8828 84.3018 19.0553 84.006C19.3019 83.587 19.5484 83.1432 19.8195 82.7242C20.0414 82.3298 20.2879 81.96 20.5344 81.5902C20.5837 81.5163 20.633 81.4177 20.6823 81.3437C20.9042 80.9986 21.126 80.6535 21.3479 80.3084C21.3972 80.2098 21.4712 80.1358 21.5205 80.0372C21.7423 79.6921 21.9642 79.347 22.2107 79.0019C22.4079 78.7307 22.6051 78.4349 22.8023 78.1637C22.827 78.1391 22.827 78.1144 22.8516 78.0898C22.8763 78.0651 22.8763 78.0405 22.9009 78.0158C22.9256 77.9665 22.9502 77.9419 22.9995 77.8926C23.0242 77.8433 23.0735 77.794 23.0981 77.7447C23.1721 77.646 23.2214 77.5721 23.2953 77.4735C23.32 77.4488 23.3446 77.4242 23.3693 77.3749C23.4679 77.227 23.5911 77.0544 23.7144 76.9065C23.8377 76.7586 23.9363 76.586 24.0595 76.4381C24.2321 76.1916 24.4046 75.9698 24.5772 75.7233C24.7251 75.5014 24.8977 75.3042 25.0456 75.107C25.1935 74.9344 25.3167 74.7619 25.44 74.5893C25.6618 74.2935 25.9083 73.9977 26.1302 73.7019C26.1549 73.6772 26.1795 73.6279 26.2042 73.6033C26.2288 73.5786 26.2535 73.5293 26.2781 73.5047C26.3274 73.4307 26.3767 73.3814 26.426 73.3075C26.5 73.2089 26.5739 73.1102 26.6479 73.0116C26.6972 72.9623 26.7465 72.8884 26.7958 72.8391C26.7958 72.8391 26.7958 72.8144 26.8204 72.8144C26.993 72.5926 27.1902 72.3461 27.3874 72.1242C27.6832 71.7544 28.0037 71.3847 28.3242 71.0396C28.5953 70.7191 28.8665 70.4233 29.1376 70.1275C29.1869 70.0535 29.2609 70.0042 29.3102 69.9303C29.5814 69.6344 29.8525 69.3386 30.1237 69.0428C30.173 68.9689 30.2469 68.9196 30.2962 68.8456C30.5921 68.5251 30.8879 68.2047 31.1837 67.9089C31.4795 67.613 31.7507 67.3172 32.0465 67.0214C32.0958 66.9721 32.1451 66.8982 32.219 66.8489C32.5395 66.5284 32.8353 66.2079 33.1558 65.9121C33.3776 65.6903 33.5995 65.4684 33.8213 65.2465C33.9939 65.074 34.1418 64.9261 34.3144 64.7782C34.5609 64.5563 34.8074 64.3098 35.0539 64.0879C35.1279 64.014 35.2265 63.94 35.3004 63.8661C35.5469 63.6196 35.8181 63.3977 36.0646 63.1512C36.3358 62.9047 36.6069 62.6582 36.8781 62.4363C37.0999 62.2391 37.3465 62.0173 37.5683 61.82C37.593 61.7954 37.593 61.7954 37.6176 61.7707C37.7902 61.6228 37.9381 61.4996 38.086 61.3517C38.4558 61.0559 38.8009 60.7354 39.1706 60.4396C39.4911 60.1684 39.8116 59.9219 40.132 59.6507C40.2306 59.5768 40.3292 59.4782 40.4278 59.4042C40.5264 59.3303 40.625 59.2563 40.7237 59.1824C40.9702 58.9852 41.2413 58.7633 41.4878 58.5661C41.7344 58.3689 42.0055 58.1717 42.252 57.9745C42.3753 57.8759 42.5232 57.7773 42.6464 57.6787C42.893 57.5061 43.1148 57.3335 43.3613 57.161C43.7064 56.9145 44.0516 56.6433 44.3967 56.3968C44.6185 56.2489 44.8157 56.0763 45.0376 55.9284C45.5799 55.534 46.1469 55.1396 46.6892 54.7698C46.8618 54.6466 47.0097 54.548 47.1822 54.4247C47.7985 54.0056 48.4394 53.5866 49.0557 53.1922C49.3022 53.0196 49.5487 52.8717 49.7953 52.7238C50.0171 52.6005 50.2143 52.4526 50.4362 52.3294C50.658 52.1815 50.9046 52.0336 51.1264 51.9103C51.5701 51.6391 52.0139 51.368 52.4576 51.0968C52.6548 50.9736 52.8273 50.875 53.0246 50.7517C53.2711 50.6038 53.5422 50.4559 53.7887 50.308C53.9366 50.234 54.0845 50.1354 54.2325 50.0615C54.405 49.9629 54.5776 49.8643 54.7748 49.7657C54.898 49.6917 55.0213 49.6178 55.1445 49.5685C55.4897 49.3712 55.8101 49.1987 56.1552 49.0015C56.1799 48.9768 56.2045 48.9768 56.2292 48.9768C56.4264 48.8782 56.599 48.7796 56.7962 48.6564C56.8208 48.6564 56.8208 48.6317 56.8455 48.6317C57.1413 48.4838 57.4371 48.3112 57.7083 48.1633C57.9301 48.0401 58.1273 47.9415 58.3492 47.8182C58.571 47.7196 58.7683 47.5964 58.9901 47.4978C59.0887 47.4485 59.1873 47.3992 59.2859 47.3499C59.5078 47.2266 59.7296 47.128 59.9269 47.0294C60.1487 46.9308 60.3706 46.8075 60.5678 46.7089C60.9129 46.5364 61.258 46.3638 61.6031 46.2159C62.0468 45.994 62.4906 45.7968 62.9343 45.575C63.2055 45.4517 63.4766 45.3285 63.7478 45.2052C64.6845 44.7615 65.6213 44.3424 66.558 43.948C66.7799 43.8494 67.0017 43.7508 67.2236 43.6522C67.5194 43.5289 67.8152 43.4057 68.111 43.2824C68.2836 43.2085 68.4561 43.1345 68.604 43.0606C68.6287 43.0606 68.6533 43.0359 68.678 43.0359C69.0971 42.8634 69.5161 42.6908 69.9352 42.5182C69.9845 42.4936 70.0092 42.4936 70.0585 42.4689C70.3296 42.3703 70.5761 42.2717 70.8473 42.1485C70.8966 42.1238 70.9459 42.0992 70.9952 42.0992C71.4143 41.9266 71.8333 41.7787 72.2524 41.6062C72.6961 41.4336 73.1398 41.2857 73.5589 41.1131C73.7808 41.0392 73.978 40.9652 74.1998 40.8666C74.4217 40.7927 74.6682 40.6941 74.8901 40.6201C75.038 40.5708 75.1859 40.5215 75.3338 40.4722C75.4817 40.4229 75.6296 40.3736 75.7775 40.3243C76.1719 40.1764 76.5663 40.0531 76.9608 39.9052C77.577 39.6834 78.1687 39.4862 78.7849 39.2889C83.0496 37.8838 87.2649 36.7252 91.3324 35.7885C97.0268 34.4573 102.401 33.5452 107.232 32.9536C108.588 32.7811 109.895 32.6578 111.176 32.5345C111.596 32.4852 112.015 32.4606 112.434 32.4359C112.508 32.4359 112.582 32.4359 112.656 32.4113C116.476 32.0908 119.804 32.0169 122.541 32.0662C125.006 32.0169 126.855 32.1894 128.186 32.4359Z" fill="url(#paint5_linear_60_870)"/>
<path opacity="0.42" d="M98.5062 95.0006L113.79 51.4914L123.207 47.917L105.482 95.0006H98.5062Z" fill="url(#paint6_linear_60_870)"/>
<defs>
<linearGradient id="paint0_linear_60_870" x1="13.7109" y1="69.7813" x2="44.198" y2="69.7813" gradientUnits="userSpaceOnUse">
<stop stop-color="#B72A2B"/>
<stop offset="0.9994" stop-color="#56200B" stop-opacity="0"/>
</linearGradient>
<linearGradient id="paint1_linear_60_870" x1="28.6046" y1="26.6834" x2="60.1126" y2="26.6834" gradientUnits="userSpaceOnUse">
<stop stop-color="#B72A2B"/>
<stop offset="0.9994" stop-color="#56200B" stop-opacity="0"/>
</linearGradient>
<linearGradient id="paint2_linear_60_870" x1="70.2927" y1="66.106" x2="105.833" y2="66.106" gradientUnits="userSpaceOnUse">
<stop stop-color="#B72A2B"/>
<stop offset="0.9994" stop-color="#56200B" stop-opacity="0"/>
</linearGradient>
<linearGradient id="paint3_linear_60_870" x1="93.6167" y1="14.891" x2="119.119" y2="14.891" gradientUnits="userSpaceOnUse">
<stop stop-color="#B72A2B"/>
<stop offset="0.9994" stop-color="#56200B" stop-opacity="0"/>
</linearGradient>
<linearGradient id="paint4_linear_60_870" x1="24.6348" y1="75.3731" x2="25.1085" y2="75.3731" gradientUnits="userSpaceOnUse">
<stop stop-color="#FF8F31"/>
<stop offset="1" stop-color="#FF9D32"/>
</linearGradient>
<linearGradient id="paint5_linear_60_870" x1="13.7137" y1="63.4618" x2="128.187" y2="63.4618" gradientUnits="userSpaceOnUse">
<stop stop-color="#FF8F31"/>
<stop offset="1" stop-color="#FF9D32"/>
</linearGradient>
<linearGradient id="paint6_linear_60_870" x1="98.5012" y1="71.4501" x2="123.197" y2="71.4501" gradientUnits="userSpaceOnUse">
<stop stop-color="#B72A2B"/>
<stop offset="0.9994" stop-color="#56200B" stop-opacity="0"/>
</linearGradient>
</defs>
</svg>
