<svg width="520" height="386" viewBox="0 0 520 386" fill="none" xmlns="http://www.w3.org/2000/svg">
<path d="M113.1 224.4C134 207.2 156.3 192.7 179.3 180.6L158.1 239.8L155 248.4L151.8 257.3L106.1 385.2H0C26.1 315.1 66.2 262.9 113.1 224.4Z" fill="#CC0000"/>
<path d="M243.9 0L181.6 174.2C166.9 181.7 152.9 190 139.6 199C131.5 204.5 123.6 210.2 116.1 216.2C76.0001 247.8 43.6001 286.5 19.1001 331.8L137.7 0H243.9Z" fill="#CC0000"/>
<path opacity="0.42" d="M113.1 224.4C134 207.2 156.3 192.7 179.3 180.6L158.1 239.8L155 248.4L151.8 257.3L106.1 385.2H55.6001L70.4001 343.7L113.1 224.4Z" fill="url(#paint0_linear_478_279)"/>
<path opacity="0.42" d="M243.9 0L181.6 174.2C166.9 181.7 152.9 190 139.6 199C131.5 204.5 123.6 210.2 116.1 216.2L193.3 0H243.9Z" fill="url(#paint1_linear_478_279)"/>
<path d="M429.3 150.8L345.5 385.2H239.4L306 198.8C307.5 198.1 308.9 197.3 310.3 196.6C326.6 188.5 343.5 180.9 360.6 174C361.9 173.5 363.1 173 364.4 172.5C386.2 164 408 156.7 429.3 150.8Z" fill="#CC0000"/>
<path d="M483.2 0L440.8 118.5C440.3 118.5 439.8 118.5 439.2 118.5C436 118.4 432.7 118.4 429.4 118.4C412.9 118.4 396.2 119.1 379.6 120.4C378.9 120.5 378.2 120.5 377.5 120.6C362.1 121.9 346.7 123.8 331.7 126.2L377 0H483.2Z" fill="#CC0000"/>
<path opacity="0.42" d="M429.3 150.8L345.5 385.2H285.1L360.5 174.1C361.8 173.6 363 173.1 364.3 172.6C386.2 164 408 156.7 429.3 150.8Z" fill="url(#paint2_linear_478_279)"/>
<path d="M499.8 194.2L427.9 385.2H399.6H365.5L418.7 245.1L419.9 242L423.8 231.6L424.8 228.9L427.6 221.8L458.6 209.9L465.8 207.1L499.8 194.2Z" fill="#CC0000"/>
<path d="M511.7 159.1L501.6 186.9L470.4 198.9L431.6 213.9H431.5C430.8 214.1 430 214.3 429.3 214.5L449.3 159.1H511.7Z" fill="#CC0000"/>
<path opacity="0.42" d="M483.2 0L440.8 118.5C440.3 118.5 439.8 118.5 439.2 118.5C436 118.4 432.7 118.4 429.4 118.4C412.9 118.4 396.2 119.1 379.6 120.4L422.8 0H483.2Z" fill="url(#paint3_linear_478_279)"/>
<path d="M520 131.4C514.6 130.4 507.1 129.6 497.7 129.4C486.7 129.1 473.1 129.5 457.6 130.8C457.3 130.8 457 130.8 456.7 130.9C455 131 453.3 131.2 451.6 131.3C446.5 131.8 441.1 132.3 435.6 133C415.9 135.4 394.1 139.2 371.1 144.5C354.7 148.3 337.6 153 320.2 158.7C317.7 159.5 315.3 160.3 312.8 161.2C311.2 161.7 309.6 162.3 308 162.9C307.4 163.1 306.8 163.3 306.2 163.5C305.6 163.7 305 163.9 304.4 164.1C303.5 164.4 302.6 164.8 301.6 165.1C300.7 165.4 299.9 165.7 299 166.1C297.2 166.8 295.4 167.4 293.7 168.1C292 168.7 290.3 169.4 288.6 170.1C288.4 170.2 288.2 170.3 288 170.3C287 170.7 285.9 171.1 284.8 171.6C284.6 171.7 284.5 171.7 284.3 171.8C282.6 172.5 280.9 173.2 279.2 173.9C279.1 173.9 279 174 278.9 174C278.2 174.3 277.5 174.6 276.9 174.9C275.7 175.4 274.5 175.9 273.3 176.4C272.4 176.8 271.5 177.2 270.6 177.6C266.8 179.2 263 181 259.2 182.7C258.1 183.2 257 183.7 255.9 184.2C254.1 185 252.3 185.9 250.5 186.8C249.1 187.5 247.7 188.1 246.3 188.8C245.4 189.2 244.5 189.7 243.7 190.1C242.8 190.5 241.9 191 241.1 191.4C240.7 191.6 240.3 191.8 239.9 192C239 192.4 238.2 192.9 237.3 193.3C236.4 193.7 235.6 194.2 234.7 194.7C233.5 195.3 232.3 196 231.2 196.6C231.1 196.6 231.1 196.7 231 196.7C230.2 197.1 229.5 197.5 228.7 198C228.6 198 228.5 198.1 228.4 198.1C227 198.8 225.7 199.6 224.3 200.4C223.8 200.7 223.3 200.9 222.8 201.2C222.1 201.6 221.4 202 220.6 202.4C220 202.7 219.4 203.1 218.8 203.4C217.8 204 216.7 204.6 215.7 205.2C214.9 205.6 214.2 206.1 213.4 206.6C211.6 207.7 209.8 208.8 208 209.9C207.1 210.5 206.1 211.1 205.2 211.6C204.3 212.1 203.5 212.7 202.6 213.2C201.6 213.8 200.6 214.5 199.6 215.1C197.1 216.7 194.5 218.4 192 220.1C191.3 220.6 190.7 221 190 221.5C187.8 223 185.5 224.6 183.3 226.2C182.4 226.8 181.5 227.5 180.7 228.1C179.3 229.1 177.9 230.1 176.5 231.2C175.5 231.9 174.6 232.6 173.6 233.3C173.1 233.7 172.5 234.1 172 234.5C171 235.3 169.9 236.1 168.9 236.9C167.8 237.7 166.8 238.5 165.8 239.4C165.4 239.7 165 240 164.6 240.3C164.2 240.6 163.8 240.9 163.4 241.3C162.1 242.3 160.8 243.4 159.5 244.5C158 245.7 156.6 247 155.1 248.2C154.4 248.8 153.8 249.3 153.2 249.9C153.1 250 153.1 250 153 250.1C152.1 250.9 151.1 251.7 150.2 252.6C149.1 253.6 148 254.5 146.9 255.5C145.8 256.4 144.8 257.4 143.8 258.4C143.5 258.7 143.1 259 142.8 259.3C141.8 260.2 140.8 261.2 139.8 262.1C139.1 262.7 138.5 263.4 137.8 264C136.9 264.9 136 265.8 135.1 266.7C133.8 268 132.5 269.2 131.3 270.5C131.1 270.7 130.9 270.9 130.6 271.2C129.4 272.4 128.2 273.6 127.1 274.8C125.9 276.1 124.7 277.4 123.5 278.6C123.3 278.9 123 279.1 122.8 279.4C121.7 280.6 120.6 281.8 119.5 283C119.3 283.3 119 283.5 118.8 283.8C117.7 285 116.6 286.3 115.5 287.5C114.2 288.9 113 290.4 111.7 291.9C110.9 292.8 110.1 293.8 109.4 294.7C109.4 294.7 109.4 294.8 109.3 294.8C109.1 295 108.9 295.3 108.7 295.5C108.4 295.9 108.1 296.3 107.8 296.7C107.6 297 107.4 297.2 107.2 297.5C107.1 297.6 107 297.8 106.9 297.9C106.8 298 106.7 298.2 106.6 298.3C105.6 299.5 104.7 300.7 103.8 301.9C103.3 302.6 102.7 303.3 102.2 304C101.9 304.3 101.7 304.7 101.4 305C101 305.5 100.7 306 100.3 306.5C99.6 307.5 98.9 308.4 98.2 309.4C97.7 310 97.2 310.7 96.8 311.3C96.3 311.9 95.9 312.6 95.4 313.2C95.3 313.3 95.2 313.4 95.1 313.6C94.8 314 94.6 314.3 94.3 314.7C94.2 314.9 94 315.1 93.9 315.3C93.8 315.5 93.7 315.6 93.5 315.8C93.4 315.9 93.4 316 93.3 316.1C93.2 316.2 93.2 316.3 93.1 316.4C92.3 317.5 91.5 318.7 90.7 319.8C89.8 321.2 88.8 322.6 87.9 324C87.6 324.4 87.4 324.7 87.2 325.1C86.3 326.5 85.4 327.9 84.5 329.3C84.3 329.6 84.1 330 83.9 330.3C82.9 331.8 82 333.4 81 334.9C80 336.6 78.9 338.4 77.9 340.1C77.2 341.3 76.5 342.5 75.9 343.7V343.8C75.8 343.9 75.7 344.1 75.7 344.2C75.7 344.2 75.7 344.3 75.6 344.3C75.5 344.5 75.4 344.6 75.3 344.8C75 345.4 74.6 346 74.3 346.6C73.6 347.8 72.9 349.1 72.3 350.3C72 350.8 71.8 351.3 71.5 351.8C71 352.7 70.5 353.7 70 354.6C69.9 354.9 69.7 355.2 69.6 355.4C69.4 355.8 69.1 356.3 68.9 356.7C68.2 358.1 67.4 359.6 66.7 361C66.4 361.7 66 362.4 65.7 363.1C65.2 364.1 64.7 365.1 64.3 366.1C64.1 366.5 63.9 366.9 63.7 367.3C63.6 367.5 63.6 367.6 63.5 367.8C62.9 369 62.4 370.1 61.9 371.3C61.5 372.1 61.2 372.9 60.8 373.7C60.1 375.2 59.5 376.6 58.9 378.1C58.7 378.4 58.6 378.8 58.5 379.1C58.3 379.5 58.2 379.9 58 380.3C57.4 381.7 56.8 383.2 56.2 384.7H0C26.1 314.6 66.2 262.5 113.1 224C134 206.8 156.3 192.3 179.3 180.2C228.5 154.2 280.9 139 330.1 130.8C346.5 128.1 362.6 126.1 378 124.8C399.8 122.9 420.4 122.4 439.2 122.7C444.5 122.8 449.6 123 454.6 123.2C455.4 123.2 456.2 123.3 457 123.3C457.7 123.3 458.4 123.4 459.1 123.4C459.2 123.4 459.3 123.4 459.4 123.4C460.1 123.4 460.9 123.5 461.6 123.5C475.3 124.3 487.7 125.5 498.4 127.1C506.7 128.7 513.9 130 520 131.4Z" fill="#FFB30A"/>
<path d="M101.9 304.3C101.3 305.1 100.6 306 100 306.8C100.4 306.3 100.7 305.8 101.1 305.3C101.3 305 101.6 304.7 101.9 304.3Z" fill="#FFB30A"/>
<path d="M93.5001 315.6C93.4001 315.7 93.3001 315.9 93.2001 316L93.1001 316.1C93.3001 316 93.4001 315.8 93.5001 315.6Z" fill="#FFB30A"/>
<path d="M107 297.7C106.9 297.8 106.8 297.9 106.7 298.1C106.7 298.1 106.7 298.1 106.6 298.2C106.8 298 106.9 297.8 107 297.7Z" fill="#FFB30A"/>
<path d="M208 210C207.9 210 207.9 210.1 207.8 210.1C206.9 210.6 206.1 211.2 205.2 211.7C206.2 211.2 207.1 210.6 208 210Z" fill="#FFB30A"/>
<path d="M101.9 304.3C101.3 305.1 100.6 306 100 306.8C100.4 306.3 100.7 305.8 101.1 305.3C101.3 305 101.6 304.7 101.9 304.3Z" fill="url(#paint4_linear_478_279)"/>
<path d="M520 131.4C512.8 131.4 504.9 131.9 496.4 132.8C483.7 134.1 469.6 136.5 454.5 139.8C454.1 139.9 453.6 140 453.2 140.1C451.4 140.5 449.6 140.9 447.8 141.4C442.4 142.7 436.8 144.1 431.2 145.6C409.5 151.4 386.3 159.1 362.7 168.4C344.7 175.5 326.4 183.6 308.3 192.6C220.9 236.2 137.3 301.8 106.3 385.2H55.6001C56.2001 383.7 56.8001 382.3 57.4001 380.8C57.6001 380.4 57.7001 380 57.9001 379.6C58.0001 379.2 58.2001 378.9 58.3001 378.6C58.9001 377.1 59.6001 375.6 60.2001 374.2C60.6001 373.4 60.9001 372.6 61.3001 371.8C61.8001 370.6 62.4001 369.4 62.9001 368.3C63.0001 368.1 63.0001 368 63.1001 367.8C63.3001 367.4 63.5001 367 63.7001 366.6C64.2001 365.6 64.6001 364.6 65.1001 363.6C65.4001 362.9 65.8001 362.2 66.1001 361.5C66.8001 360.1 67.5001 358.6 68.3001 357.2C68.5001 356.8 68.8001 356.3 69.0001 355.9C69.1001 355.6 69.3001 355.3 69.4001 355.1C69.9001 354.2 70.4001 353.2 70.9001 352.3C71.2001 351.8 71.4001 351.3 71.7001 350.8C72.4001 349.6 73.0001 348.3 73.7001 347.1C74.0001 346.5 74.3001 345.9 74.7001 345.3C74.8001 345.1 74.9001 345 75.0001 344.8C75.0001 344.8 75.0001 344.7 75.1001 344.7C75.2001 344.6 75.2001 344.4 75.3001 344.3V344.2C76.0001 343 76.6001 341.8 77.3001 340.6C78.3001 338.9 79.3001 337.1 80.4001 335.4C81.3001 333.8 82.3001 332.3 83.3001 330.8C83.5001 330.5 83.7001 330.1 83.9001 329.8C84.8001 328.4 85.7001 327 86.6001 325.6C86.8001 325.2 87.1001 324.9 87.3001 324.5C88.2001 323.1 89.1001 321.7 90.1001 320.3C90.9001 319.2 91.7001 318 92.5001 316.9C92.6001 316.8 92.6001 316.7 92.7001 316.6C92.8001 316.5 92.8001 316.4 92.9001 316.3C93.0001 316.1 93.1001 316 93.3001 315.8C93.4001 315.6 93.6001 315.4 93.7001 315.2C94.0001 314.8 94.2001 314.5 94.5001 314.1C94.6001 314 94.7001 313.9 94.8001 313.7C95.2001 313.1 95.7001 312.4 96.2001 311.8C96.7001 311.2 97.1001 310.5 97.6001 309.9C98.3001 308.9 99.0001 308 99.7001 307C100.3 306.1 101 305.3 101.6 304.5C102.2 303.8 102.7 303.1 103.2 302.4C104.1 301.2 105.1 300 106 298.8C106.1 298.7 106.2 298.5 106.3 298.4C106.4 298.3 106.5 298.1 106.6 298C106.8 297.7 107 297.5 107.2 297.2C107.5 296.8 107.8 296.4 108.1 296C108.3 295.8 108.5 295.5 108.7 295.3C108.7 295.3 108.7 295.2 108.8 295.2C109.5 294.3 110.3 293.3 111.1 292.4C112.3 290.9 113.6 289.4 114.9 288C116 286.7 117.1 285.5 118.2 284.3C118.4 284 118.7 283.8 118.9 283.5C120 282.3 121.1 281.1 122.2 279.9C122.4 279.6 122.7 279.4 122.9 279.1C124.1 277.8 125.3 276.5 126.5 275.3C127.7 274.1 128.8 272.9 130 271.7C130.2 271.5 130.4 271.2 130.7 271C132 269.7 133.2 268.4 134.5 267.2C135.4 266.3 136.3 265.4 137.2 264.5C137.9 263.8 138.5 263.2 139.2 262.6C140.2 261.7 141.2 260.7 142.2 259.8C142.5 259.5 142.9 259.2 143.2 258.9C144.2 257.9 145.3 257 146.3 256C147.4 255 148.5 254 149.6 253.1C150.5 252.3 151.5 251.4 152.4 250.6C152.5 250.5 152.5 250.5 152.6 250.4C153.3 249.8 153.9 249.3 154.5 248.7C156 247.5 157.4 246.2 158.9 245C160.2 243.9 161.5 242.9 162.8 241.8C163.2 241.5 163.6 241.1 164 240.8C164.4 240.5 164.8 240.2 165.2 239.9C166.2 239.1 167.3 238.2 168.3 237.4C169.3 236.6 170.4 235.8 171.4 235C171.9 234.6 172.5 234.2 173 233.8C174 233.1 174.9 232.4 175.9 231.7C177.3 230.7 178.7 229.6 180.1 228.6C181 228 181.8 227.3 182.7 226.7C184.9 225.1 187.2 223.5 189.4 222C190.1 221.5 190.7 221.1 191.4 220.6C193.9 218.9 196.5 217.2 199 215.6C200 214.9 201 214.3 202 213.7C202.9 213.2 203.7 212.6 204.6 212.1C205.5 211.5 206.5 210.9 207.4 210.4C209.2 209.3 211 208.2 212.8 207.1C213.6 206.6 214.3 206.2 215.1 205.7C216.1 205.1 217.2 204.5 218.2 203.9C218.8 203.6 219.4 203.2 220 202.9C220.7 202.5 221.4 202.1 222.2 201.7C222.7 201.4 223.2 201.1 223.7 200.9C225.1 200.1 226.4 199.4 227.8 198.6C227.9 198.5 228 198.5 228.1 198.5C228.9 198.1 229.6 197.7 230.4 197.2C230.5 197.2 230.5 197.1 230.6 197.1C231.8 196.5 233 195.8 234.1 195.2C235 194.7 235.8 194.3 236.7 193.8C237.6 193.4 238.4 192.9 239.3 192.5C239.7 192.3 240.1 192.1 240.5 191.9C241.4 191.4 242.3 191 243.1 190.6C244 190.2 244.9 189.7 245.7 189.3C247.1 188.6 248.5 187.9 249.9 187.3C251.7 186.4 253.5 185.6 255.3 184.7C256.4 184.2 257.5 183.7 258.6 183.2C262.4 181.4 266.2 179.7 270 178.1C270.9 177.7 271.8 177.3 272.7 176.9C273.9 176.4 275.1 175.9 276.3 175.4C277 175.1 277.7 174.8 278.3 174.5C278.4 174.5 278.5 174.4 278.6 174.4C280.3 173.7 282 173 283.7 172.3C283.9 172.2 284 172.2 284.2 172.1C285.3 171.7 286.3 171.3 287.4 170.8C287.6 170.7 287.8 170.6 288 170.6C289.7 169.9 291.4 169.3 293.1 168.6C294.9 167.9 296.7 167.3 298.4 166.6C299.3 166.3 300.1 166 301 165.6C301.9 165.3 302.9 164.9 303.8 164.6C304.4 164.4 305 164.2 305.6 164C306.2 163.8 306.8 163.6 307.4 163.4C309 162.8 310.6 162.3 312.2 161.7C314.7 160.8 317.1 160 319.6 159.2C336.9 153.5 354 148.8 370.5 145C393.6 139.6 415.4 135.9 435 133.5C440.5 132.8 445.8 132.3 451 131.8C452.7 131.6 454.4 131.5 456.1 131.4C456.4 131.4 456.7 131.4 457 131.3C472.5 130 486 129.7 497.1 129.9C507.1 129.7 514.6 130.4 520 131.4Z" fill="url(#paint5_linear_478_279)"/>
<path opacity="0.42" d="M399.6 385.2L461.6 208.7L499.8 194.2L427.9 385.2H399.6Z" fill="url(#paint6_linear_478_279)"/>
<defs>
<linearGradient id="paint0_linear_478_279" x1="55.6196" y1="282.895" x2="179.294" y2="282.895" gradientUnits="userSpaceOnUse">
<stop stop-color="#B72A2B"/>
<stop offset="0.9994" stop-color="#56200B" stop-opacity="0"/>
</linearGradient>
<linearGradient id="paint1_linear_478_279" x1="116.036" y1="108.064" x2="243.852" y2="108.064" gradientUnits="userSpaceOnUse">
<stop stop-color="#B72A2B"/>
<stop offset="0.9994" stop-color="#56200B" stop-opacity="0"/>
</linearGradient>
<linearGradient id="paint2_linear_478_279" x1="285.149" y1="267.986" x2="429.323" y2="267.986" gradientUnits="userSpaceOnUse">
<stop stop-color="#B72A2B"/>
<stop offset="0.9994" stop-color="#56200B" stop-opacity="0"/>
</linearGradient>
<linearGradient id="paint3_linear_478_279" x1="379.766" y1="60.2268" x2="483.217" y2="60.2268" gradientUnits="userSpaceOnUse">
<stop stop-color="#B72A2B"/>
<stop offset="0.9994" stop-color="#56200B" stop-opacity="0"/>
</linearGradient>
<linearGradient id="paint4_linear_478_279" x1="99.931" y1="305.58" x2="101.852" y2="305.58" gradientUnits="userSpaceOnUse">
<stop stop-color="#FF8F31"/>
<stop offset="1" stop-color="#FF9D32"/>
</linearGradient>
<linearGradient id="paint5_linear_478_279" x1="55.631" y1="257.26" x2="520.006" y2="257.26" gradientUnits="userSpaceOnUse">
<stop stop-color="#FF8F31"/>
<stop offset="1" stop-color="#FF9D32"/>
</linearGradient>
<linearGradient id="paint6_linear_478_279" x1="399.58" y1="289.665" x2="499.759" y2="289.665" gradientUnits="userSpaceOnUse">
<stop stop-color="#B72A2B"/>
<stop offset="0.9994" stop-color="#56200B" stop-opacity="0"/>
</linearGradient>
</defs>
</svg>
