<svg width="32" height="33" viewBox="0 0 32 33" fill="none" xmlns="http://www.w3.org/2000/svg">
<path d="M27 0.23584H5C2.23858 0.23584 0 2.47442 0 5.23584V27.2358C0 29.9973 2.23858 32.2358 5 32.2358H27C29.7614 32.2358 32 29.9973 32 27.2358V5.23584C32 2.47442 29.7614 0.23584 27 0.23584Z" fill="url(#paint0_linear_3_979)"/>
<path d="M16 9.43584C18.2 9.43584 18.5 9.43584 19.4 9.43584C20.2 9.43584 20.6 9.63584 20.9 9.73584C21.3 9.93584 21.6 10.0358 21.9 10.3358C22.2 10.6358 22.4 10.9358 22.5 11.3358C22.6 11.6358 22.7 12.0358 22.8 12.8358C22.8 13.7358 22.8 13.9358 22.8 16.2358C22.8 18.5358 22.8 18.7358 22.8 19.6358C22.8 20.4358 22.6 20.8358 22.5 21.1358C22.3 21.5358 22.2 21.8358 21.9 22.1358C21.6 22.4358 21.3 22.6358 20.9 22.7358C20.6 22.8358 20.2 22.9358 19.4 23.0358C18.5 23.0358 18.3 23.0358 16 23.0358C13.7 23.0358 13.5 23.0358 12.6 23.0358C11.8 23.0358 11.4 22.8358 11.1 22.7358C10.7 22.5358 10.4 22.4358 10.1 22.1358C9.79995 21.8358 9.59995 21.5358 9.49995 21.1358C9.39995 20.8358 9.29995 20.4358 9.19995 19.6358C9.19995 18.7358 9.19995 18.5358 9.19995 16.2358C9.19995 13.9358 9.19995 13.7358 9.19995 12.8358C9.19995 12.0358 9.39995 11.6358 9.49995 11.3358C9.69995 10.9358 9.79995 10.6358 10.1 10.3358C10.4 10.0358 10.7 9.83584 11.1 9.73584C11.4 9.63584 11.8 9.53584 12.6 9.43584C13.5 9.43584 13.8 9.43584 16 9.43584ZM16 7.93584C13.7 7.93584 13.5 7.93584 12.6 7.93584C11.7 7.93584 11.1 8.13584 10.6 8.33584C10.1 8.53584 9.59995 8.83584 9.09995 9.33584C8.59995 9.83584 8.39995 10.2358 8.09995 10.8358C7.89995 11.3358 7.79995 11.9358 7.69995 12.8358C7.69995 13.7358 7.69995 14.0358 7.69995 16.2358C7.69995 18.5358 7.69995 18.7358 7.69995 19.6358C7.69995 20.5358 7.89995 21.1358 8.09995 21.6358C8.29995 22.1358 8.59995 22.6358 9.09995 23.1358C9.59995 23.6358 9.99995 23.8358 10.6 24.1358C11.1 24.3358 11.7 24.4358 12.6 24.5358C13.5 24.5358 13.8 24.5358 16 24.5358C18.2 24.5358 18.5 24.5358 19.4 24.5358C20.3 24.5358 20.9 24.3358 21.4 24.1358C21.9 23.9358 22.4 23.6358 22.9 23.1358C23.4 22.6358 23.6 22.2358 23.9 21.6358C24.1 21.1358 24.1999 20.5358 24.2999 19.6358C24.2999 18.7358 24.2999 18.4358 24.2999 16.2358C24.2999 14.0358 24.2999 13.7358 24.2999 12.8358C24.2999 11.9358 24.1 11.3358 23.9 10.8358C23.7 10.3358 23.4 9.83584 22.9 9.33584C22.4 8.83584 22 8.63584 21.4 8.33584C20.9 8.13584 20.3 8.03584 19.4 7.93584C18.5 7.93584 18.3 7.93584 16 7.93584Z" fill="white"/>
<path d="M16 11.9358C13.6 11.9358 11.7 13.8358 11.7 16.2358C11.7 18.6358 13.6 20.5358 16 20.5358C18.4 20.5358 20.3 18.6358 20.3 16.2358C20.3 13.8358 18.4 11.9358 16 11.9358ZM16 19.0358C14.5 19.0358 13.2 17.8358 13.2 16.2358C13.2 14.7358 14.4 13.4358 16 13.4358C17.5 13.4358 18.8 14.6358 18.8 16.2358C18.8 17.7358 17.5 19.0358 16 19.0358Z" fill="white"/>
<path d="M20.4 12.8358C20.9522 12.8358 21.4 12.3881 21.4 11.8358C21.4 11.2836 20.9522 10.8358 20.4 10.8358C19.8477 10.8358 19.4 11.2836 19.4 11.8358C19.4 12.3881 19.8477 12.8358 20.4 12.8358Z" fill="white"/>
<defs>
<linearGradient id="paint0_linear_3_979" x1="2" y1="31.2358" x2="38.5" y2="0.235837" gradientUnits="userSpaceOnUse">
<stop stop-color="#FAAD4F"/>
<stop offset="0.35" stop-color="#DD2A7B"/>
<stop offset="0.62" stop-color="#9537B0"/>
<stop offset="1" stop-color="#515BD4"/>
</linearGradient>
</defs>
</svg>
