<svg width="113" height="44" viewBox="0 0 113 44" fill="none" xmlns="http://www.w3.org/2000/svg">
<path d="M75.5675 37.4223C75.5675 39.0211 75.2797 40.3115 74.7042 41.2822C74.1287 42.2529 73.2999 42.9495 72.1949 43.3606C71.0898 43.7831 69.7546 43.9886 68.1777 43.9886C67.3144 43.9886 66.3935 43.943 65.4381 43.8402C64.4827 43.7374 63.5734 43.6232 62.6986 43.4748C61.8353 43.3263 61.0986 43.2007 60.5116 43.0751L60.7763 39.0554C61.4094 39.1125 62.1346 39.1924 62.9748 39.2952C63.8151 39.3979 64.6554 39.4779 65.5072 39.5464C66.359 39.6149 67.0957 39.6492 67.7287 39.6492C68.3388 39.6492 68.8222 39.5807 69.1906 39.4436C69.5589 39.3066 69.8237 39.101 69.9848 38.8384C70.1575 38.5757 70.2381 38.2331 70.2381 37.7992C70.2381 37.4452 70.1575 37.1711 69.9963 36.9656C69.8352 36.76 69.5359 36.5887 69.0985 36.4402C68.6611 36.2918 68.0165 36.1548 67.1877 36.0177C65.9101 35.8007 64.8281 35.5381 63.9532 35.2412C63.0784 34.9329 62.3763 34.556 61.8353 34.0992C61.3058 33.6424 60.9144 33.06 60.6842 32.352C60.4425 31.644 60.3274 30.7989 60.3274 29.794C60.3274 28.9147 60.408 28.1496 60.5691 27.4758C60.6612 27.099 60.7763 26.7564 60.9259 26.448C61.018 26.2539 61.1101 26.0712 61.2252 25.8999C61.2713 25.82 61.3288 25.74 61.3864 25.6715C61.9734 24.8721 62.7792 24.3011 63.7806 23.97C64.8856 23.5931 66.1978 23.4104 67.7172 23.4104C68.4309 23.4104 69.2251 23.4447 70.123 23.5246C71.0208 23.6045 71.8956 23.6959 72.7589 23.7872C73.6107 23.89 74.3589 23.9928 74.992 24.107L74.7848 28.2181C74.1977 28.161 73.4956 28.0925 72.7013 28.0239C71.9071 27.9554 71.1014 27.8869 70.2956 27.8298C69.4899 27.7727 68.7762 27.7385 68.1661 27.7385C67.5906 27.7385 67.1187 27.7956 66.7273 27.8983C66.3475 28.0125 66.0712 28.1724 65.8985 28.378C65.7259 28.5949 65.6453 28.8804 65.6453 29.2344C65.6453 29.6227 65.7374 29.931 65.9101 30.1594C66.0827 30.3878 66.3935 30.5705 66.8424 30.719C67.2913 30.8674 67.9244 31.0387 68.7532 31.2329C70.0309 31.5069 71.1129 31.7924 71.9762 32.0779C72.8395 32.3748 73.5416 32.7289 74.0596 33.1628C74.5776 33.5967 74.9574 34.1449 75.1991 34.8187C75.4524 35.5038 75.5675 36.3717 75.5675 37.4223Z" fill="#FFB30A"/>
<path d="M82.7847 44.0001C81.6566 44.0001 80.7473 43.8517 80.0336 43.5433C79.32 43.235 78.8135 42.6983 78.4912 41.9331C78.1804 41.1566 78.0193 40.0832 78.0193 38.69V33.003H76.5459V28.8919H78.0193V25.3975H83.107V28.8919H86.2954V33.003H83.107V37.4566C83.107 38.0276 83.1415 38.473 83.199 38.7927C83.2566 39.1125 83.3832 39.3409 83.5789 39.4665C83.7746 39.5921 84.0739 39.6606 84.4652 39.6606C84.5688 39.6606 84.73 39.6606 84.9717 39.6492C85.2134 39.6378 85.4551 39.6264 85.7084 39.615C85.9616 39.6035 86.1573 39.5921 86.2724 39.5693L86.3645 43.5547C86.0537 43.6118 85.6738 43.6804 85.2249 43.7489C84.776 43.8174 84.3386 43.8745 83.9127 43.9202C83.4753 43.9773 83.0955 44.0001 82.7847 44.0001Z" fill="#FFB30A"/>
<path d="M92.4536 44.0002C90.7731 44.0002 89.5299 43.6119 88.7012 42.824C87.8724 42.0474 87.458 40.8255 87.458 39.1925C87.458 38.0163 87.6767 37.1256 88.1256 36.4975C88.5745 35.8694 89.2191 35.4355 90.0594 35.1728C90.9112 34.9216 91.9241 34.7617 93.1097 34.7046L96.091 34.499V33.8481C96.091 33.3571 95.9414 33.0145 95.6306 32.8204C95.3198 32.6262 94.8939 32.5234 94.3414 32.5234C93.7543 32.5234 93.0752 32.5463 92.327 32.5805C91.5788 32.6148 90.8536 32.6719 90.14 32.729C89.4263 32.7861 88.8048 32.8432 88.2753 32.9003L88.1256 29.4059C88.6781 29.2688 89.3342 29.1318 90.0939 28.9948C90.8537 28.8577 91.6479 28.7435 92.4767 28.6522C93.3054 28.5608 94.0881 28.5151 94.8133 28.5151C96.137 28.5151 97.2766 28.6636 98.232 28.9605C99.1874 29.2574 99.9125 29.7599 100.419 30.4907C100.925 31.2102 101.167 32.2265 101.167 33.5398V39.7635C101.225 39.9348 101.363 40.0833 101.57 40.2089C101.777 40.3231 101.996 40.403 102.238 40.4487L102.146 43.7604C101.835 43.7832 101.489 43.8061 101.144 43.8518C100.787 43.886 100.454 43.9089 100.154 43.9089C99.8435 43.9089 99.6017 43.8974 99.4061 43.8746C98.819 43.8518 98.3241 43.7376 97.9327 43.532C97.5413 43.3265 97.2536 43.1209 97.0809 42.9268C96.7816 43.0638 96.3903 43.2123 95.8953 43.3835C95.4004 43.5548 94.8594 43.6919 94.2723 43.8061C93.6622 43.9431 93.0637 44.0002 92.4536 44.0002ZM93.7543 40.4144C94.0536 40.4144 94.3414 40.3802 94.6291 40.3117C94.9169 40.2431 95.1932 40.1632 95.4579 40.0604C95.7226 39.9576 95.9298 39.8777 96.091 39.7978V37.3882L93.927 37.5938C93.4551 37.628 93.0982 37.7765 92.8795 38.0163C92.6493 38.2561 92.5342 38.5987 92.5342 39.0327C92.5342 39.4666 92.6378 39.7978 92.8335 40.049C93.0292 40.3002 93.3399 40.4144 93.7543 40.4144Z" fill="#FFB30A"/>
<path d="M104.01 43.6462V28.892H109.063V30.4793C109.374 30.2281 109.754 29.954 110.203 29.6685C110.652 29.383 111.112 29.1318 111.607 28.9262C112.102 28.7093 112.563 28.5722 113 28.5151V33.3C112.586 33.3342 112.137 33.437 111.642 33.5969C111.147 33.7568 110.686 33.9281 110.238 34.1222C109.789 34.3163 109.409 34.499 109.075 34.6475V43.6576H104.01V43.6462Z" fill="#FFB30A"/>
<path d="M13.0185 25.6258C15.4243 23.6617 17.9911 22.0058 20.6386 20.624L18.1983 27.3845L17.8415 28.3666L17.4732 29.3829L12.2128 43.9887H0C3.00428 35.9835 7.62005 30.0224 13.0185 25.6258Z" fill="#CC0000"/>
<path d="M28.0744 0L20.9033 19.8931C19.2112 20.7495 17.5997 21.6974 16.0688 22.7251C15.1365 23.3532 14.2271 24.0042 13.3638 24.6893C8.74804 28.2979 5.01859 32.7174 2.19849 37.8905L15.8501 0H28.0744Z" fill="#CC0000"/>
<path opacity="0.42" d="M13.0185 25.6258C15.4242 23.6617 17.9911 22.0058 20.6386 20.624L18.1983 27.3845L17.8415 28.3666L17.4731 29.3829L12.2128 43.9887H6.3999L8.10348 39.2495L13.0185 25.6258Z" fill="url(#paint0_linear_60_1014)"/>
<path opacity="0.42" d="M28.0744 0L20.9032 19.8931C19.2112 20.7495 17.5997 21.6974 16.0688 22.7251C15.1364 23.3532 14.2271 24.0042 13.3638 24.6893L22.25 0H28.0744Z" fill="url(#paint1_linear_60_1014)"/>
<path d="M49.4151 17.2209L39.7692 43.9887H27.5564L35.2225 22.7024C35.3951 22.6225 35.5563 22.5311 35.7174 22.4512C37.5937 21.5262 39.539 20.6583 41.5073 19.8703C41.6569 19.8132 41.7951 19.7561 41.9447 19.699C44.454 18.7283 46.9633 17.8947 49.4151 17.2209Z" fill="#CC0000"/>
<path d="M55.6195 0L50.739 13.5323C50.6815 13.5323 50.6239 13.5323 50.5548 13.5323C50.1865 13.5209 49.8067 13.5209 49.4268 13.5209C47.5275 13.5209 45.6053 13.6008 43.6945 13.7493C43.6139 13.7607 43.5334 13.7607 43.4528 13.7721C41.6801 13.9206 39.9075 14.1376 38.1809 14.4116L43.3952 0H55.6195Z" fill="#CC0000"/>
<path opacity="0.42" d="M49.4152 17.2209L39.7693 43.9887H32.8169L41.4959 19.8817C41.6456 19.8246 41.7837 19.7675 41.9333 19.7104C44.4542 18.7283 46.9635 17.8947 49.4152 17.2209Z" fill="url(#paint2_linear_60_1014)"/>
<path d="M57.5301 22.177L49.2539 43.9886H45.9964H42.0713L48.195 27.9896L48.3331 27.6356L48.782 26.448L48.8971 26.1396L49.2194 25.3288L52.7877 23.9699L53.6165 23.6501L57.5301 22.177Z" fill="#CC0000"/>
<path d="M58.9001 18.1687L57.7375 21.3434L54.1462 22.7137L49.68 24.4267H49.6685C49.5879 24.4495 49.4959 24.4724 49.4153 24.4952L51.7174 18.1687H58.9001Z" fill="#CC0000"/>
<path opacity="0.42" d="M55.6194 0L50.7388 13.5323C50.6813 13.5323 50.6237 13.5323 50.5547 13.5323C50.1863 13.5209 49.8065 13.5209 49.4266 13.5209C47.5274 13.5209 45.6051 13.6008 43.6943 13.7493L48.6669 0H55.6194Z" fill="url(#paint3_linear_60_1014)"/>
<path d="M59.8553 15.0054C59.2338 14.8912 58.3705 14.7999 57.2885 14.777C56.0223 14.7428 54.4569 14.7884 52.6727 14.9369C52.6382 14.9369 52.6036 14.9369 52.5691 14.9483C52.3734 14.9597 52.1777 14.9826 51.9821 14.994C51.395 15.0511 50.7734 15.1082 50.1404 15.1881C47.8728 15.4622 45.3634 15.8962 42.716 16.5014C40.8283 16.9353 38.8599 17.4721 36.8571 18.123C36.5693 18.2144 36.2931 18.3057 36.0053 18.4085C35.8211 18.4656 35.637 18.5341 35.4528 18.6026C35.3837 18.6255 35.3147 18.6483 35.2456 18.6711C35.1765 18.694 35.1075 18.7168 35.0384 18.7397C34.9348 18.7739 34.8312 18.8196 34.7161 18.8539C34.6125 18.8881 34.5204 18.9224 34.4168 18.9681C34.2096 19.048 34.0024 19.1165 33.8068 19.1964C33.6111 19.265 33.4154 19.3449 33.2197 19.4248C33.1967 19.4363 33.1737 19.4477 33.1507 19.4477C33.0355 19.4934 32.9089 19.539 32.7823 19.5961C32.7593 19.6076 32.7478 19.6076 32.7248 19.619C32.5291 19.6989 32.3334 19.7788 32.1377 19.8588C32.1262 19.8588 32.1147 19.8702 32.1032 19.8702C32.0226 19.9045 31.942 19.9387 31.873 19.973C31.7348 20.0301 31.5967 20.0872 31.4586 20.1443C31.355 20.19 31.2514 20.2356 31.1478 20.2813C30.7104 20.464 30.273 20.6696 29.8356 20.8637C29.709 20.9208 29.5824 20.9779 29.4557 21.035C29.2485 21.1264 29.0414 21.2291 28.8342 21.3319C28.673 21.4119 28.5119 21.4804 28.3507 21.5603C28.2471 21.606 28.1435 21.6631 28.0514 21.7088C27.9478 21.7545 27.8442 21.8115 27.7522 21.8572C27.7061 21.8801 27.6601 21.9029 27.614 21.9257C27.5104 21.9714 27.4184 22.0285 27.3148 22.0742C27.2112 22.1199 27.1191 22.177 27.0155 22.2341C26.8773 22.3026 26.7392 22.3825 26.6126 22.4511C26.6011 22.4511 26.6011 22.4625 26.5896 22.4625C26.4975 22.5081 26.4169 22.5538 26.3248 22.6109C26.3133 22.6109 26.3018 22.6223 26.2903 22.6223C26.1292 22.7023 25.9795 22.7936 25.8184 22.885C25.7608 22.9193 25.7033 22.9421 25.6457 22.9764C25.5651 23.022 25.4846 23.0677 25.3925 23.1134C25.3234 23.1476 25.2544 23.1933 25.1853 23.2276C25.0702 23.2961 24.9436 23.3646 24.8285 23.4331C24.7364 23.4788 24.6558 23.5359 24.5637 23.593C24.3565 23.7186 24.1493 23.8442 23.9421 23.9699C23.8385 24.0384 23.7234 24.1069 23.6198 24.164C23.5162 24.2211 23.4242 24.2896 23.3206 24.3467C23.2055 24.4152 23.0903 24.4952 22.9752 24.5637C22.6875 24.7464 22.3882 24.9405 22.1004 25.1347C22.0199 25.1918 21.9508 25.2375 21.8702 25.2945C21.617 25.4658 21.3522 25.6486 21.099 25.8313C20.9954 25.8998 20.8918 25.9797 20.7997 26.0482C20.6386 26.1624 20.4774 26.2766 20.3163 26.4023C20.2012 26.4822 20.0976 26.5621 19.9825 26.6421C19.9249 26.6877 19.8559 26.7334 19.7983 26.7791C19.6832 26.8705 19.5566 26.9618 19.4415 27.0532C19.3149 27.1445 19.1998 27.2359 19.0846 27.3387C19.0386 27.3729 18.9926 27.4072 18.9465 27.4414C18.9005 27.4757 18.8544 27.51 18.8084 27.5556C18.6588 27.6698 18.5091 27.7955 18.3595 27.9211C18.1868 28.0581 18.0257 28.2066 17.853 28.3436C17.7724 28.4121 17.7034 28.4692 17.6343 28.5377C17.6228 28.5492 17.6228 28.5492 17.6113 28.5606C17.5077 28.6519 17.3926 28.7433 17.289 28.8461C17.1624 28.9603 17.0357 29.063 16.9091 29.1772C16.7825 29.28 16.6674 29.3942 16.5523 29.5084C16.5178 29.5427 16.4717 29.5769 16.4372 29.6112C16.3221 29.714 16.207 29.8282 16.0919 29.9309C16.0113 29.9995 15.9422 30.0794 15.8617 30.1479C15.7581 30.2507 15.6545 30.3535 15.5509 30.4562C15.4012 30.6047 15.2516 30.7417 15.1135 30.8902C15.0905 30.913 15.0674 30.9359 15.0329 30.9701C14.8948 31.1072 14.7566 31.2442 14.63 31.3812C14.4919 31.5297 14.3538 31.6781 14.2156 31.8152C14.1926 31.8494 14.1581 31.8723 14.1351 31.9065C14.0085 32.0436 13.8818 32.1806 13.7552 32.3176C13.7322 32.3519 13.6977 32.3747 13.6746 32.409C13.548 32.546 13.4214 32.6945 13.2948 32.8315C13.1452 32.9914 13.007 33.1627 12.8574 33.334C12.7653 33.4368 12.6732 33.551 12.5926 33.6537C12.5926 33.6537 12.5926 33.6652 12.5811 33.6652C12.5581 33.688 12.5351 33.7223 12.5121 33.7451C12.4775 33.7908 12.443 33.8365 12.4085 33.8821C12.3855 33.9164 12.3624 33.9392 12.3394 33.9735C12.3279 33.9849 12.3164 34.0078 12.3049 34.0192C12.2934 34.0306 12.2819 34.0534 12.2703 34.0649C12.1552 34.2019 12.0516 34.3389 11.948 34.476C11.8905 34.5559 11.8214 34.6358 11.7639 34.7158C11.7293 34.75 11.7063 34.7957 11.6718 34.83C11.6257 34.8871 11.5912 34.9442 11.5452 35.0013C11.4646 35.1155 11.384 35.2182 11.3035 35.3324C11.2459 35.401 11.1883 35.4809 11.1423 35.5494C11.0847 35.6179 11.0387 35.6979 10.9812 35.7664C10.9696 35.7778 10.9581 35.7892 10.9466 35.8121C10.9121 35.8577 10.8891 35.892 10.8545 35.9377C10.843 35.9605 10.82 35.9834 10.8085 36.0062C10.797 36.029 10.7855 36.0405 10.7625 36.0633C10.7509 36.0747 10.7509 36.0861 10.7394 36.0976C10.7279 36.109 10.7279 36.1204 10.7164 36.1318C10.6243 36.2574 10.5322 36.3945 10.4402 36.5201C10.3366 36.68 10.2215 36.8398 10.1179 36.9997C10.0833 37.0454 10.0603 37.0797 10.0373 37.1253C9.93368 37.2852 9.83009 37.4451 9.72649 37.605C9.70347 37.6392 9.68045 37.6849 9.65743 37.7192C9.54232 37.8904 9.43873 38.0732 9.32362 38.2445C9.20851 38.4386 9.0819 38.6441 8.96679 38.8383C8.88622 38.9753 8.80564 39.1124 8.73658 39.2494V39.2608C8.72507 39.2722 8.71356 39.2951 8.71356 39.3065C8.71356 39.3065 8.71356 39.3179 8.70205 39.3179C8.69053 39.3407 8.67902 39.3522 8.66751 39.375C8.63298 39.4435 8.58694 39.512 8.55241 39.5806C8.47183 39.7176 8.39126 39.866 8.3222 40.0031C8.28766 40.0602 8.26464 40.1173 8.23011 40.1744C8.17256 40.2772 8.115 40.3914 8.05745 40.4941C8.04594 40.5284 8.02292 40.5627 8.01141 40.5855C7.98839 40.6312 7.95385 40.6883 7.93083 40.7339C7.85026 40.8938 7.75817 41.0651 7.6776 41.225C7.64307 41.3049 7.59702 41.3849 7.56249 41.4648C7.50494 41.579 7.44739 41.6932 7.40134 41.8074C7.37832 41.8531 7.3553 41.8988 7.33228 41.9444C7.32077 41.9673 7.32077 41.9787 7.30926 42.0015C7.24019 42.1386 7.18264 42.2642 7.12509 42.4012C7.07905 42.4926 7.04451 42.5839 6.99847 42.6753C6.9179 42.8466 6.84883 43.0065 6.77977 43.1778C6.75675 43.212 6.74524 43.2577 6.73373 43.292C6.7107 43.3376 6.69919 43.3833 6.67617 43.429C6.60711 43.5889 6.53804 43.7602 6.46898 43.9315H0C3.00428 35.9263 7.62005 29.9766 13.0185 25.58C15.4243 23.6159 17.9911 21.96 20.6386 20.5782C26.3018 17.6091 32.3334 15.8733 37.9966 14.9369C39.8844 14.6286 41.7376 14.4002 43.5102 14.2517C46.0196 14.0348 48.3907 13.9777 50.5547 14.0119C51.1648 14.0233 51.7519 14.0462 52.3274 14.069C52.4195 14.069 52.5116 14.0804 52.6036 14.0804C52.6842 14.0804 52.7648 14.0918 52.8454 14.0918C52.8569 14.0918 52.8684 14.0918 52.8799 14.0918C52.9605 14.0918 53.0526 14.1033 53.1331 14.1033C54.7101 14.1946 56.1374 14.3317 57.369 14.5144C58.3244 14.6971 59.1532 14.8455 59.8553 15.0054Z" fill="#FFB30A"/>
<path d="M11.7294 34.75C11.6604 34.8414 11.5798 34.9441 11.5107 35.0355C11.5568 34.9784 11.5913 34.9213 11.6374 34.8642C11.6604 34.8299 11.6949 34.7957 11.7294 34.75Z" fill="#FFB30A"/>
<path d="M10.7621 36.0405C10.7507 36.0519 10.7392 36.0748 10.7278 36.0862L10.7163 36.0976C10.7392 36.0862 10.7507 36.0634 10.7621 36.0405Z" fill="#FFB30A"/>
<path d="M12.3161 33.9963C12.3046 34.0078 12.2932 34.0192 12.2817 34.042C12.2817 34.042 12.2817 34.042 12.2703 34.0534C12.2932 34.0306 12.3046 34.0078 12.3161 33.9963Z" fill="#FFB30A"/>
<path d="M23.9422 23.9812C23.9307 23.9812 23.9307 23.9926 23.9192 23.9926C23.8156 24.0497 23.7235 24.1182 23.6199 24.1753C23.735 24.1182 23.8386 24.0497 23.9422 23.9812Z" fill="#FFB30A"/>
<path d="M11.7294 34.75C11.6604 34.8414 11.5798 34.9441 11.5107 35.0355C11.5568 34.9784 11.5913 34.9213 11.6374 34.8642C11.6604 34.8299 11.6949 34.7957 11.7294 34.75Z" fill="url(#paint4_linear_60_1014)"/>
<path d="M59.8553 15.0054C59.0266 15.0054 58.1172 15.0625 57.1388 15.1653C55.677 15.3137 54.054 15.5878 52.3159 15.9646C52.2698 15.9761 52.2123 15.9875 52.1662 15.9989C51.959 16.0446 51.7518 16.0903 51.5446 16.1474C50.9231 16.2958 50.2785 16.4557 49.6339 16.627C47.1361 17.2893 44.4656 18.1686 41.7491 19.2307C39.6772 20.0415 37.5707 20.9665 35.4873 21.9942C25.427 26.9732 15.8041 34.4645 12.2358 43.9885H6.3999C6.46897 43.8172 6.53803 43.6573 6.60709 43.486C6.63012 43.4404 6.64163 43.3947 6.66465 43.349C6.67616 43.3033 6.69918 43.2691 6.71069 43.2348C6.77975 43.0635 6.86033 42.8922 6.92939 42.7324C6.97543 42.641 7.00997 42.5496 7.05601 42.4583C7.11356 42.3212 7.18263 42.1842 7.24018 42.0586C7.25169 42.0358 7.25169 42.0243 7.2632 42.0015C7.28622 41.9558 7.30924 41.9101 7.33226 41.8645C7.38982 41.7503 7.43586 41.6361 7.49341 41.5219C7.52795 41.4419 7.57399 41.362 7.60852 41.2821C7.68909 41.1222 7.76967 40.9509 7.86175 40.791C7.88478 40.7453 7.91931 40.6882 7.94233 40.6426C7.95384 40.6083 7.97686 40.574 7.98837 40.5512C8.04592 40.4484 8.10348 40.3342 8.16103 40.2314C8.19556 40.1743 8.21858 40.1172 8.25312 40.0601C8.33369 39.9231 8.40275 39.7747 8.48333 39.6376C8.51786 39.5691 8.55239 39.5006 8.59844 39.4321C8.60995 39.4092 8.62146 39.3978 8.63297 39.375C8.63297 39.375 8.63297 39.3636 8.64448 39.3636C8.65599 39.3521 8.65599 39.3293 8.6675 39.3179V39.3065C8.74807 39.1694 8.81714 39.0324 8.89771 38.8953C9.01282 38.7012 9.12793 38.4957 9.25454 38.3015C9.35814 38.1188 9.47324 37.9475 9.58835 37.7762C9.61137 37.742 9.63439 37.6963 9.65741 37.662C9.76101 37.5021 9.86461 37.3423 9.9682 37.1824C9.99122 37.1367 10.0258 37.1025 10.0488 37.0568C10.1524 36.8969 10.256 36.737 10.3711 36.5771C10.4632 36.4515 10.5552 36.3145 10.6473 36.1889C10.6588 36.1775 10.6588 36.166 10.6704 36.1546C10.6819 36.1432 10.6819 36.1318 10.6934 36.1204C10.7049 36.0975 10.7164 36.0861 10.7394 36.0633C10.7509 36.0404 10.7739 36.0176 10.7855 35.9947C10.82 35.9491 10.843 35.9148 10.8775 35.8691C10.8891 35.8577 10.9006 35.8463 10.9121 35.8235C10.9581 35.7549 11.0157 35.675 11.0732 35.6065C11.1308 35.538 11.1768 35.458 11.2344 35.3895C11.3149 35.2753 11.3955 35.1725 11.4761 35.0583C11.5452 34.9556 11.6257 34.8642 11.6948 34.7728C11.7639 34.6929 11.8214 34.613 11.879 34.533C11.9826 34.396 12.0977 34.259 12.2013 34.1219C12.2128 34.1105 12.2243 34.0877 12.2358 34.0762C12.2473 34.0648 12.2588 34.042 12.2703 34.0306C12.2934 33.9963 12.3164 33.9735 12.3394 33.9392C12.3739 33.8935 12.4085 33.8478 12.443 33.8022C12.466 33.7793 12.489 33.7451 12.5121 33.7222C12.5121 33.7222 12.5121 33.7108 12.5236 33.7108C12.6041 33.608 12.6962 33.4938 12.7883 33.3911C12.9264 33.2198 13.0761 33.0485 13.2257 32.8886C13.3523 32.7401 13.4789 32.6031 13.6056 32.4661C13.6286 32.4318 13.6631 32.409 13.6861 32.3747C13.8128 32.2377 13.9394 32.1006 14.066 31.9636C14.089 31.9293 14.1235 31.9065 14.1466 31.8722C14.2847 31.7238 14.4228 31.5753 14.5609 31.4383C14.6991 31.3013 14.8257 31.1642 14.9638 31.0272C14.9868 31.0043 15.0099 30.9701 15.0444 30.9473C15.194 30.7988 15.3322 30.6503 15.4818 30.5133C15.5854 30.4105 15.689 30.3077 15.7926 30.205C15.8732 30.125 15.9422 30.0565 16.0228 29.988C16.1379 29.8852 16.253 29.771 16.3681 29.6682C16.4027 29.634 16.4487 29.5997 16.4832 29.5655C16.5983 29.4513 16.725 29.3485 16.8401 29.2343C16.9667 29.1201 17.0933 29.0059 17.2199 28.9031C17.3235 28.8118 17.4386 28.709 17.5422 28.6176C17.5537 28.6062 17.5537 28.6062 17.5652 28.5948C17.6458 28.5263 17.7149 28.4692 17.7839 28.4007C17.9566 28.2636 18.1177 28.1152 18.2904 27.9781C18.44 27.8525 18.5897 27.7383 18.7393 27.6127C18.7854 27.5784 18.8314 27.5328 18.8774 27.4985C18.9235 27.4642 18.9695 27.43 19.0156 27.3957C19.1307 27.3044 19.2573 27.2016 19.3724 27.1102C19.4875 27.0189 19.6141 26.9275 19.7292 26.8362C19.7868 26.7905 19.8558 26.7448 19.9134 26.6991C20.0285 26.6192 20.1321 26.5393 20.2472 26.4593C20.4084 26.3451 20.5695 26.2195 20.7307 26.1053C20.8343 26.0368 20.9263 25.9569 21.0299 25.8883C21.2832 25.7056 21.5479 25.5229 21.8011 25.3516C21.8817 25.2945 21.9508 25.2488 22.0314 25.1917C22.3191 24.9976 22.6184 24.8035 22.9062 24.6208C23.0213 24.5408 23.1364 24.4723 23.2515 24.4038C23.3551 24.3467 23.4472 24.2782 23.5508 24.2211C23.6544 24.1525 23.7695 24.084 23.8731 24.0269C24.0802 23.9013 24.2874 23.7757 24.4946 23.6501C24.5867 23.593 24.6673 23.5473 24.7594 23.4902C24.8745 23.4217 25.0011 23.3532 25.1162 23.2846C25.1853 23.2504 25.2543 23.2047 25.3234 23.1705C25.404 23.1248 25.4846 23.0791 25.5766 23.0334C25.6342 22.9992 25.6917 22.9649 25.7493 22.9421C25.9104 22.8507 26.0601 22.7708 26.2212 22.6794C26.2327 22.668 26.2443 22.668 26.2558 22.668C26.3478 22.6223 26.4284 22.5766 26.5205 22.5195C26.532 22.5195 26.532 22.5081 26.5435 22.5081C26.6817 22.4396 26.8198 22.3597 26.9464 22.2911C27.05 22.234 27.1421 22.1884 27.2457 22.1313C27.3493 22.0856 27.4414 22.0285 27.545 21.9828C27.591 21.96 27.637 21.9371 27.6831 21.9143C27.7867 21.8572 27.8903 21.8115 27.9824 21.7658C28.086 21.7202 28.1896 21.6631 28.2816 21.6174C28.4428 21.5374 28.6039 21.4575 28.7651 21.389C28.9723 21.2862 29.1795 21.1948 29.3867 21.0921C29.5133 21.035 29.6399 20.9779 29.7665 20.9208C30.2039 20.7152 30.6413 20.5211 31.0787 20.3384C31.1823 20.2927 31.2859 20.247 31.3895 20.2013C31.5276 20.1442 31.6658 20.0871 31.8039 20.03C31.8845 19.9958 31.965 19.9615 32.0341 19.9273C32.0456 19.9273 32.0571 19.9158 32.0686 19.9158C32.2643 19.8359 32.46 19.756 32.6557 19.676C32.6787 19.6646 32.6902 19.6646 32.7132 19.6532C32.8399 19.6075 32.955 19.5618 33.0816 19.5047C33.1046 19.4933 33.1276 19.4819 33.1506 19.4819C33.3463 19.402 33.542 19.3334 33.7377 19.2535C33.9449 19.1736 34.1521 19.105 34.3477 19.0251C34.4513 18.9909 34.5434 18.9566 34.647 18.9109C34.7506 18.8767 34.8657 18.831 34.9693 18.7967C35.0384 18.7739 35.1074 18.751 35.1765 18.7282C35.2456 18.7054 35.3146 18.6825 35.3837 18.6597C35.5679 18.5912 35.752 18.5341 35.9362 18.4655C36.224 18.3628 36.5002 18.2714 36.788 18.1801C38.7793 17.5291 40.7477 16.9924 42.6469 16.5585C45.3059 15.9418 47.8152 15.5193 50.0713 15.2452C50.7044 15.1653 51.3144 15.1082 51.913 15.0511C52.1087 15.0282 52.3044 15.0168 52.5 15.0054C52.5346 15.0054 52.5691 15.0054 52.6036 14.994C54.3878 14.8455 55.9417 14.8112 57.2194 14.8341C58.3705 14.8112 59.2338 14.8912 59.8553 15.0054Z" fill="url(#paint5_linear_60_1014)"/>
<path opacity="0.42" d="M45.9966 43.9886L53.1332 23.8329L57.5302 22.177L49.2541 43.9886H45.9966Z" fill="url(#paint6_linear_60_1014)"/>
<defs>
<linearGradient id="paint0_linear_60_1014" x1="6.40215" y1="32.3058" x2="20.6379" y2="32.3058" gradientUnits="userSpaceOnUse">
<stop stop-color="#B72A2B"/>
<stop offset="0.9994" stop-color="#56200B" stop-opacity="0"/>
</linearGradient>
<linearGradient id="paint1_linear_60_1014" x1="13.3564" y1="12.3406" x2="28.0688" y2="12.3406" gradientUnits="userSpaceOnUse">
<stop stop-color="#B72A2B"/>
<stop offset="0.9994" stop-color="#56200B" stop-opacity="0"/>
</linearGradient>
<linearGradient id="paint2_linear_60_1014" x1="32.8226" y1="30.6032" x2="49.4179" y2="30.6032" gradientUnits="userSpaceOnUse">
<stop stop-color="#B72A2B"/>
<stop offset="0.9994" stop-color="#56200B" stop-opacity="0"/>
</linearGradient>
<linearGradient id="paint3_linear_60_1014" x1="43.7134" y1="6.8777" x2="55.6214" y2="6.8777" gradientUnits="userSpaceOnUse">
<stop stop-color="#B72A2B"/>
<stop offset="0.9994" stop-color="#56200B" stop-opacity="0"/>
</linearGradient>
<linearGradient id="paint4_linear_60_1014" x1="11.5028" y1="34.8961" x2="11.724" y2="34.8961" gradientUnits="userSpaceOnUse">
<stop stop-color="#FF8F31"/>
<stop offset="1" stop-color="#FF9D32"/>
</linearGradient>
<linearGradient id="paint5_linear_60_1014" x1="6.40346" y1="29.3782" x2="59.856" y2="29.3782" gradientUnits="userSpaceOnUse">
<stop stop-color="#FF8F31"/>
<stop offset="1" stop-color="#FF9D32"/>
</linearGradient>
<linearGradient id="paint6_linear_60_1014" x1="45.9942" y1="33.0788" x2="57.5256" y2="33.0788" gradientUnits="userSpaceOnUse">
<stop stop-color="#B72A2B"/>
<stop offset="0.9994" stop-color="#56200B" stop-opacity="0"/>
</linearGradient>
</defs>
</svg>
