<svg width="16" height="17" viewBox="0 0 16 17" fill="none" xmlns="http://www.w3.org/2000/svg">
<g clip-path="url(#clip0_3_852)">
<path d="M11.6666 16.5C6.23389 16.6533 -3.38477 7.02332 1.24189 1.79198C1.25856 1.77598 1.96923 1.15598 1.96923 1.15598C2.40917 0.730675 2.99859 0.495213 3.61049 0.500326C4.22238 0.505438 4.80778 0.750716 5.24056 1.18332L6.67589 2.72932C7.09829 3.17094 7.33188 3.75984 7.32702 4.37093C7.32217 4.98201 7.07926 5.56713 6.64989 6.00198L6.39056 6.26465C7.16137 7.97056 8.5248 9.33896 10.2279 10.116L10.5012 9.84932C10.9455 9.42574 11.5357 9.18944 12.1496 9.18944C12.7634 9.18944 13.3536 9.42574 13.7979 9.84932L15.2899 11.2333C15.7325 11.6644 15.9866 12.2531 15.9967 12.8708C16.0068 13.4886 15.7722 14.0853 15.3439 14.5307C15.3439 14.5307 14.7239 15.242 14.7079 15.2587C14.3081 15.6563 13.8335 15.9707 13.3115 16.1837C12.7895 16.3968 12.2304 16.5043 11.6666 16.5ZM2.63323 3.23332C-0.606774 7.24465 9.76189 17.0153 13.2699 13.8666C13.2699 13.8666 13.8859 13.1607 13.9026 13.144C13.9349 13.1139 13.9607 13.0775 13.9783 13.037C13.996 12.9965 14.0051 12.9528 14.0051 12.9087C14.0051 12.8645 13.996 12.8208 13.9783 12.7803C13.9607 12.7398 13.9349 12.7034 13.9026 12.6733L12.4106 11.2907C12.2106 11.124 12.0986 11.122 11.9119 11.264L11.1552 12.0087C11.0186 12.143 10.8463 12.2353 10.6587 12.2746C10.4711 12.3138 10.2762 12.2983 10.0972 12.23C8.76704 11.7352 7.55879 10.9602 6.5544 9.95757C5.55 8.9549 4.77294 7.74798 4.27589 6.41865C4.20333 6.23815 4.18499 6.04041 4.22312 5.84965C4.26125 5.65889 4.35419 5.48339 4.49056 5.34465L5.22989 4.59332C5.26359 4.56361 5.29068 4.52717 5.30943 4.48635C5.32817 4.44553 5.33814 4.40123 5.33871 4.35631C5.33928 4.3114 5.33042 4.26686 5.31271 4.22558C5.295 4.1843 5.26883 4.14719 5.23589 4.11665L3.79989 2.57065C3.73549 2.51928 3.65434 2.49357 3.57211 2.4985C3.48987 2.50342 3.41237 2.53862 3.35456 2.59732C3.33923 2.61398 2.63323 3.23332 2.63323 3.23332ZM15.7666 7.78865C16.0495 6.81004 16.0648 5.77345 15.8109 4.78692C15.5569 3.80039 15.043 2.90002 14.3227 2.17966C13.6025 1.4593 12.7021 0.94532 11.7156 0.691282C10.7291 0.437244 9.69253 0.45245 8.71389 0.735316C8.58804 0.772874 8.47082 0.834852 8.36893 0.917712C8.26703 1.00057 8.18245 1.10269 8.12002 1.21824C8.05758 1.33378 8.01852 1.4605 8.00506 1.59114C7.9916 1.72178 8.004 1.8538 8.04156 1.97965C8.07912 2.1055 8.1411 2.22272 8.22396 2.32462C8.30682 2.42651 8.40893 2.51109 8.52448 2.57353C8.64003 2.63596 8.76674 2.67502 8.89738 2.68848C9.02803 2.70194 9.16004 2.68954 9.28589 2.65198C9.91874 2.47106 10.5885 2.4627 11.2256 2.62778C11.8628 2.79286 12.4442 3.12536 12.9096 3.59081C13.375 4.05626 13.7074 4.63773 13.8724 5.27492C14.0374 5.91211 14.0289 6.58183 13.8479 7.21465C13.8104 7.34054 13.7981 7.47259 13.8116 7.60325C13.8252 7.73391 13.8643 7.86062 13.9268 7.97615C13.9894 8.09167 14.074 8.19374 14.176 8.27653C14.278 8.35932 14.3953 8.42121 14.5212 8.45865C14.6141 8.48603 14.7104 8.49995 14.8072 8.49998C15.0225 8.49975 15.2319 8.43008 15.4043 8.30132C15.5768 8.17257 15.7031 7.9916 15.7646 7.78532L15.7666 7.78865ZM12.0426 7.87732C12.1355 7.78445 12.2092 7.67418 12.2595 7.55281C12.3098 7.43145 12.3357 7.30136 12.3357 7.16998C12.3357 7.03861 12.3098 6.90852 12.2595 6.78715C12.2092 6.66578 12.1355 6.55552 12.0426 6.46265L11.3332 5.75265V4.83332C11.3332 4.5681 11.2279 4.31375 11.0403 4.12621C10.8528 3.93867 10.5984 3.83332 10.3332 3.83332C10.068 3.83332 9.81366 3.93867 9.62612 4.12621C9.43858 4.31375 9.33323 4.5681 9.33323 4.83332V6.16665C9.33317 6.29799 9.35898 6.42806 9.4092 6.54943C9.45941 6.67079 9.53305 6.78108 9.62589 6.87398L10.6259 7.87398C10.7188 7.96691 10.829 8.04063 10.9504 8.09092C11.0718 8.14122 11.2018 8.1671 11.3332 8.1671C11.4646 8.1671 11.5947 8.14122 11.7161 8.09092C11.8374 8.04063 11.9477 7.96691 12.0406 7.87398L12.0426 7.87732Z" fill="#1C1B1F"/>
</g>
<defs>
<clipPath id="clip0_3_852">
<rect width="16" height="16" fill="white" transform="translate(0 0.5)"/>
</clipPath>
</defs>
</svg>
