<svg width="164" height="73" viewBox="0 0 164 73" fill="none" xmlns="http://www.w3.org/2000/svg">
<path d="M0.0328979 50.283H164V56.2083H0.0328979V50.283Z" fill="#F08E30"/>
<g opacity="0.3" filter="url(#filter0_f_459_976)">
<path d="M32.5237 25.4953L43.6831 4.19705L62.5454 4.22997V25.4953H32.5237Z" fill="#1C1B1F"/>
</g>
<path fill-rule="evenodd" clip-rule="evenodd" d="M-3.05176e-05 56.2413V39.5845C-3.05176e-05 37.774 0.625412 36.128 1.6788 34.8442C2.27135 34.0871 3.02846 33.4616 3.85143 32.9679C4.60855 32.507 5.46443 32.2107 6.38615 32.0461L24.7218 28.1947L40.0289 0.674805L69.5239 0.707725V31.6511H164V56.2413H-3.05176e-05ZM43.6831 4.19705L32.5237 25.4953H62.5454V4.22997L43.6831 4.19705Z" fill="#F8B11A"/>
<path d="M152.479 5.28339H161.07V31.7828H152.479V5.28339Z" fill="#F29039"/>
<path d="M113.174 5.28339H121.766V31.7828H113.174V5.28339Z" fill="#F29039"/>
<path d="M73.8687 5.28339H82.4604V31.7828H73.8687V5.28339Z" fill="#F29039"/>
<path d="M73.8692 26.5488H161.07V31.7829H73.8692V26.5488Z" fill="#F29039"/>
<path d="M73.8692 16.8049H161.07V22.039H73.8692V16.8049Z" fill="#F29039"/>
<path d="M73.8692 7.02808H161.07V12.2621H73.8692V7.02808Z" fill="#F29039"/>
<path d="M44.1108 30.7624H52.2417V33.6263H44.1108V30.7624Z" fill="#1C1B1F"/>
<path d="M26.9604 56.2084H56.4883C55.1715 49.2625 49.0487 44.0285 41.7408 44.0285C34.3999 44.0285 28.2771 49.2955 26.9604 56.2084Z" fill="#D66B12"/>
<path d="M114.194 56.2083H143.722C143.195 53.4432 141.912 50.8755 139.904 48.7687C137.073 45.7402 133.089 44.0285 128.942 44.0285C128.613 44.0285 128.283 44.0285 127.987 44.0614C121.074 44.4893 115.445 49.5917 114.194 56.2083Z" fill="#D66B12"/>
<path d="M151.228 7.02808H152.512V12.2621H151.228V7.02808Z" fill="#D16E1C"/>
<path d="M151.228 16.8049H152.512V22.0389H151.228V16.8049Z" fill="#D16E1C"/>
<path d="M151.228 26.5488H152.512V31.7828H151.228V26.5488Z" fill="#D16E1C"/>
<path d="M82.4281 7.02808H83.7119V12.2621H82.4281V7.02808Z" fill="#D16E1C"/>
<path d="M82.4281 16.8049H83.7119V22.0389H82.4281V16.8049Z" fill="#D16E1C"/>
<path d="M82.4281 26.5488H83.7119V31.7828H82.4281V26.5488Z" fill="#D16E1C"/>
<path d="M111.923 7.02808H113.207V12.2621H111.923V7.02808Z" fill="#D16E1C"/>
<path d="M111.923 16.8049H113.207V22.0389H111.923V16.8049Z" fill="#D16E1C"/>
<path d="M111.923 26.5488H113.207V31.7828H111.923V26.5488Z" fill="#D16E1C"/>
<path d="M121.798 7.02808H123.082V12.2621H121.798V7.02808Z" fill="#D16E1C"/>
<path d="M121.798 16.8049H123.082V22.0389H121.798V16.8049Z" fill="#D16E1C"/>
<path d="M121.798 26.5488H123.082V31.7828H121.798V26.5488Z" fill="#D16E1C"/>
<path d="M40.4938 71.4169C33.6734 70.7415 28.6919 64.6649 29.3672 57.8445C30.0426 51.0241 36.1192 46.0425 42.9396 46.7179C49.76 47.3933 54.7416 53.4698 54.0662 60.2903C53.3908 67.1107 47.3143 72.0922 40.4938 71.4169Z" fill="#1C1B1F"/>
<path d="M40.0046 66.291C36.006 65.3468 33.5299 61.3398 34.4741 57.3411C35.4183 53.3425 39.4252 50.8664 43.4239 51.8106C47.4225 52.7548 49.8986 56.7617 48.9544 60.7604C48.0103 64.759 44.0033 67.2352 40.0046 66.291Z" fill="white"/>
<path d="M41.7076 63.7138C39.1442 63.7138 37.0661 61.6357 37.0661 59.0723C37.0661 56.5088 39.1442 54.4308 41.7076 54.4308C44.2711 54.4308 46.3491 56.5088 46.3491 59.0723C46.3491 61.6357 44.2711 63.7138 41.7076 63.7138Z" fill="#1C1B1F"/>
<path d="M128.152 46.6949C135.625 46.2341 141.813 52.3898 141.32 59.8623C140.925 66.0181 135.921 71.0546 129.765 71.4167C122.293 71.8776 116.104 65.7218 116.598 58.2493C116.96 52.0936 121.963 47.0899 128.152 46.6949Z" fill="#1C1B1F"/>
<path d="M128.185 51.6656C132.892 51.2048 136.81 55.1221 136.349 59.8294C136.02 63.3188 133.189 66.1168 129.699 66.4789C124.992 66.9398 121.075 63.0225 121.535 58.3152C121.898 54.8258 124.696 51.9948 128.185 51.6656Z" fill="white"/>
<path d="M128.349 54.4637C131.377 54.0687 133.945 56.6363 133.55 59.6648C133.287 61.7387 131.608 63.4175 129.534 63.6809C126.505 64.0759 123.938 61.5083 124.333 58.4798C124.596 56.4059 126.275 54.7271 128.349 54.4637Z" fill="#1C1B1F"/>
<path d="M-3.23602e-05 39.5845V46.5632H3.02845C5.72777 46.5632 7.90039 44.3906 7.90039 41.6912V36.0293C7.90039 35.3709 7.3737 34.8113 6.71533 34.8113H1.6788C0.625411 36.128 -3.23602e-05 37.7739 -3.23602e-05 39.5845Z" fill="#F29039"/>
<defs>
<filter id="filter0_f_459_976" x="28.5239" y="0.197052" width="38.0215" height="29.2983" filterUnits="userSpaceOnUse" color-interpolation-filters="sRGB">
<feFlood flood-opacity="0" result="BackgroundImageFix"/>
<feBlend mode="normal" in="SourceGraphic" in2="BackgroundImageFix" result="shape"/>
<feGaussianBlur stdDeviation="2" result="effect1_foregroundBlur_459_976"/>
</filter>
</defs>
</svg>
