<svg width="203" height="90" viewBox="0 0 203 90" fill="none" xmlns="http://www.w3.org/2000/svg">
<path d="M15.345 55.4946H203V71.9014H15.345V55.4946Z" fill="#5B606B"/>
<path d="M15.345 55.4946H203V63.8825H15.345V55.4946Z" fill="#4D525B"/>
<path d="M131.199 71.8008H161.396C159.441 64.4279 153.436 59.0511 146.298 59.0511C139.188 59.0511 133.154 64.4279 131.199 71.8008Z" fill="#232736"/>
<path d="M24.1691 71.8008H54.3657C52.4112 64.4279 46.4058 59.0511 39.2674 59.0511C32.1573 59.0511 26.1237 64.4279 24.1691 71.8008Z" fill="#232736"/>
<path d="M39.1668 86.2281C32.3848 86.2281 26.8869 80.7301 26.8869 73.9481C26.8869 67.1661 32.3848 61.6682 39.1668 61.6682C45.9489 61.6682 51.4468 67.1661 51.4468 73.9481C51.4468 80.7301 45.9489 86.2281 39.1668 86.2281Z" fill="#1C1B1F"/>
<path d="M39.1665 81.3295C35.0898 81.3295 31.7851 78.0247 31.7851 73.9481C31.7851 69.8715 35.0898 66.5667 39.1665 66.5667C43.2431 66.5667 46.5479 69.8715 46.5479 73.9481C46.5479 78.0247 43.2431 81.3295 39.1665 81.3295Z" fill="white"/>
<path d="M39.1666 78.5447C36.628 78.5447 34.57 76.4867 34.57 73.9481C34.57 71.4095 36.628 69.3515 39.1666 69.3515C41.7052 69.3515 43.7632 71.4095 43.7632 73.9481C43.7632 76.4867 41.7052 78.5447 39.1666 78.5447Z" fill="#1C1B1F"/>
<path d="M37.5898 15.2325H38.6299V55.4946H37.5898V15.2325Z" fill="#CE2C11"/>
<g opacity="0.3" filter="url(#filter0_f_459_777)">
<path d="M41.381 19.1245H55.0366V37.7122H41.381V19.1245Z" fill="#231F20"/>
</g>
<g opacity="0.3" filter="url(#filter1_f_459_777)">
<path d="M32.7583 19.1245V37.7122H8.36614L13.466 19.1245H32.7583Z" fill="#231F20"/>
</g>
<path fill-rule="evenodd" clip-rule="evenodd" d="M2.12563 37.8464V74.1829H23.2968V67.1035C23.2968 60.6951 28.4973 55.4946 34.9057 55.4946H58.1235V15.2325H10.2116L2.12563 37.8464ZM41.381 19.1245H55.0366V37.7122H41.381V19.1245ZM32.7583 37.7122V19.1245H13.466L8.36613 37.7122H32.7583Z" fill="#F04925"/>
<path d="M10.2116 15.2326H58.1235V10.0991H16.3516C13.7681 10.0991 11.453 11.7096 10.5807 14.1589L10.2116 15.2326Z" fill="#CE2C11"/>
<path d="M61.0087 0H199.443V55.4611H61.0087V0Z" fill="#F8B11A"/>
<path d="M64.0622 3.08685H67.2832V52.3744H64.0622V3.08685Z" fill="#F29039"/>
<path d="M71.2424 3.08685H74.4634V52.3744H71.2424V3.08685Z" fill="#F29039"/>
<path d="M78.3889 3.08685H81.6099V52.3744H78.3889V3.08685Z" fill="#F29039"/>
<path d="M85.5691 3.08685H88.79V52.3744H85.5691V3.08685Z" fill="#F29039"/>
<path d="M92.7488 3.08685H95.9697V52.3744H92.7488V3.08685Z" fill="#F29039"/>
<path d="M99.8957 3.08685H103.117V52.3744H99.8957V3.08685Z" fill="#F29039"/>
<path d="M107.075 3.08685H110.296V52.3744H107.075V3.08685Z" fill="#F29039"/>
<path d="M114.256 3.08685H117.477V52.3744H114.256V3.08685Z" fill="#F29039"/>
<path d="M121.436 3.08685H124.657V52.3744H121.436V3.08685Z" fill="#F29039"/>
<path d="M128.582 3.08685H131.803V52.3744H128.582V3.08685Z" fill="#F29039"/>
<path d="M135.762 3.08685H138.983V52.3744H135.762V3.08685Z" fill="#F29039"/>
<path d="M142.943 3.08685H146.164V52.3744H142.943V3.08685Z" fill="#F29039"/>
<path d="M150.089 3.08685H153.31V52.3744H150.089V3.08685Z" fill="#F29039"/>
<path d="M157.269 3.08685H160.49V52.3744H157.269V3.08685Z" fill="#F29039"/>
<path d="M164.449 3.08685H167.67V52.3744H164.449V3.08685Z" fill="#F29039"/>
<path d="M171.629 3.08685H174.85V52.3744H171.629V3.08685Z" fill="#F29039"/>
<path d="M178.776 3.08685H181.997V52.3744H178.776V3.08685Z" fill="#F29039"/>
<path d="M185.956 3.08685H189.177V52.3744H185.956V3.08685Z" fill="#F29039"/>
<path d="M193.136 3.08676H196.357V52.3743H193.136V3.08676Z" fill="#F29039"/>
<path d="M19.0019 41.9061H26.0813C26.6517 41.9061 27.0879 42.3423 27.0879 42.9127V43.8186C27.0879 44.3889 26.6182 44.8251 26.0813 44.8251H19.0019C18.4315 44.8251 17.9954 44.3554 17.9954 43.8186V42.9127C17.9954 42.3759 18.4651 41.9061 19.0019 41.9061Z" fill="#231F20"/>
<path d="M1.354 62.6747H19.3042V76.3303H5.58152C2.62896 76.3303 0.246777 73.9481 0.246777 70.9955V63.7819C0.246777 63.178 0.750071 62.6747 1.354 62.6747Z" fill="#5B606B"/>
<path d="M56.2111 57.9775H90.0312V73.9481H56.2111V57.9775Z" fill="#5B606B"/>
<path d="M56.2111 69.1166H90.0312V73.9145H56.2111V69.1166Z" fill="#4D525B"/>
<path d="M56.2111 57.9775H90.0312V62.7754H56.2111V57.9775Z" fill="#6E757F"/>
<path d="M86.0723 57.9775V62.7754V69.1167V73.9481H83.3546V69.1167V62.7754V57.9775H86.0723Z" fill="#323948"/>
<path d="M65.5049 57.9775V62.7754V69.1167V73.9481H62.7536V69.1167V62.7754V57.9775H65.5049Z" fill="#323948"/>
<path d="M2.12563 47.4758V58.9505H6.72225C8.50049 58.9505 9.90967 57.5078 9.90967 55.7631V47.4758H2.12563Z" fill="#F29039"/>
<path d="M161.396 71.8008H191.592C189.638 64.4279 183.632 59.0511 176.494 59.0511C169.384 59.0511 163.35 64.4279 161.396 71.8008Z" fill="#232736"/>
<path d="M165.38 78.6545C162.784 72.3886 165.76 65.205 172.025 62.6095C178.291 60.014 185.475 62.9895 188.07 69.2554C190.666 75.5213 187.69 82.7049 181.425 85.3004C175.159 87.8959 167.975 84.9204 165.38 78.6545Z" fill="#1C1B1F"/>
<path d="M176.729 81.3294C172.652 81.3294 169.348 78.0246 169.348 73.948C169.348 69.8713 172.652 66.5666 176.729 66.5666C180.806 66.5666 184.11 69.8713 184.11 73.948C184.11 78.0246 180.806 81.3294 176.729 81.3294Z" fill="white"/>
<path d="M176.729 78.5446C174.19 78.5446 172.132 76.4866 172.132 73.948C172.132 71.4094 174.19 69.3514 176.729 69.3514C179.268 69.3514 181.326 71.4094 181.326 73.948C181.326 76.4866 179.268 78.5446 176.729 78.5446Z" fill="#1C1B1F"/>
<path d="M146.465 86.2281C139.683 86.2281 134.185 80.7301 134.185 73.9481C134.185 67.1661 139.683 61.6682 146.465 61.6682C153.247 61.6682 158.745 67.1661 158.745 73.9481C158.745 80.7301 153.247 86.2281 146.465 86.2281Z" fill="#1C1B1F"/>
<path d="M146.465 81.3295C142.389 81.3295 139.084 78.0247 139.084 73.9481C139.084 69.8715 142.389 66.5667 146.465 66.5667C150.542 66.5667 153.847 69.8715 153.847 73.9481C153.847 78.0247 150.542 81.3295 146.465 81.3295Z" fill="white"/>
<path d="M146.465 78.5447C143.927 78.5447 141.869 76.4867 141.869 73.9481C141.869 71.4095 143.927 69.3515 146.465 69.3515C149.004 69.3515 151.062 71.4095 151.062 73.9481C151.062 76.4867 149.004 78.5447 146.465 78.5447Z" fill="#1C1B1F"/>
<defs>
<filter id="filter0_f_459_777" x="37.3809" y="15.1245" width="21.6558" height="26.5877" filterUnits="userSpaceOnUse" color-interpolation-filters="sRGB">
<feFlood flood-opacity="0" result="BackgroundImageFix"/>
<feBlend mode="normal" in="SourceGraphic" in2="BackgroundImageFix" result="shape"/>
<feGaussianBlur stdDeviation="2" result="effect1_foregroundBlur_459_777"/>
</filter>
<filter id="filter1_f_459_777" x="4.36621" y="15.1245" width="32.3921" height="26.5877" filterUnits="userSpaceOnUse" color-interpolation-filters="sRGB">
<feFlood flood-opacity="0" result="BackgroundImageFix"/>
<feBlend mode="normal" in="SourceGraphic" in2="BackgroundImageFix" result="shape"/>
<feGaussianBlur stdDeviation="2" result="effect1_foregroundBlur_459_777"/>
</filter>
</defs>
</svg>
