<svg width="308" height="90" viewBox="0 0 308 90" fill="none" xmlns="http://www.w3.org/2000/svg">
<path d="M24.7723 58.1085V71.4709H166.096L169.611 64.8873H224.177L227.664 71.4709H307.141V58.1085H24.7723Z" fill="#4D525B"/>
<path d="M307.141 62.7393V71.4709H227.664L224.177 64.8873H169.611L166.096 71.4709H24.7723V62.7393H307.141Z" fill="#5B606B"/>
<path d="M0.000188828 63.5483V70.5782C0.000188828 72.9215 1.89714 74.8185 4.24045 74.8185H28.0362V67.5654C28.0362 65.8079 28.5105 64.162 29.3752 62.7393H0.809196C0.362852 62.7393 0.000188828 63.1019 0.000188828 63.5483Z" fill="#B2473E"/>
<path d="M45.6668 15.7895H76.2693C77.8873 15.7895 79.1985 17.1006 79.1985 18.7186V21.2572H40.9802L41.5382 19.0255C42.0124 17.1006 43.7141 15.7895 45.6668 15.7895Z" fill="#C81517"/>
<g opacity="0.3" filter="url(#filter0_f_459_831)">
<path d="M59.2524 39.8921H39.139L43.6304 23.2657H59.2524V39.8921Z" fill="#231F20"/>
</g>
<g opacity="0.3" filter="url(#filter1_f_459_831)">
<path d="M64.8595 23.2657H76.4087V39.8921H64.8595V23.2657Z" fill="#231F20"/>
</g>
<path fill-rule="evenodd" clip-rule="evenodd" d="M1.81348 53.2824V72.81H31.1606V67.5655C31.1606 62.3488 35.4009 58.1085 40.6176 58.1085H79.1985V21.2293H40.9802L36.5168 38.8878L5.30054 46.3362C4.57523 46.8662 3.93362 47.5079 3.43149 48.2332C3.18042 48.5958 2.92935 48.9864 2.73407 49.3769C2.12036 50.5765 1.81348 51.9155 1.81348 53.2824ZM59.2524 39.8921H39.139L43.6304 23.2657H59.2524V39.8921ZM76.4087 23.2657H64.8595V39.8921H76.4087V23.2657Z" fill="#F04925"/>
<path d="M32.109 71.471H61.8188C59.894 65.0827 53.9799 60.424 46.95 60.424C39.948 60.424 34.006 65.0827 32.109 71.471Z" fill="#232736"/>
<path d="M61.8747 16.9611H62.9626V58.1364H61.8747V16.9611Z" fill="#C81517"/>
<path d="M46.8664 44.5229H54.0637C54.538 44.5229 54.9006 44.9134 54.9006 45.3598V46.2525C54.9006 46.7267 54.5101 47.0894 54.0637 47.0894H46.8664C46.3922 47.0894 46.0295 46.6988 46.0295 46.2525V45.3598C46.0295 44.8855 46.3922 44.5229 46.8664 44.5229Z" fill="#231F20"/>
<path d="M46.9502 88.1809C40.1866 88.1809 34.7036 82.6979 34.7036 75.9343C34.7036 69.1707 40.1866 63.6877 46.9502 63.6877C53.7138 63.6877 59.1968 69.1707 59.1968 75.9343C59.1968 82.6979 53.7138 88.1809 46.9502 88.1809Z" fill="#1C1B1F"/>
<path d="M46.95 83.299C42.8826 83.299 39.5853 80.0017 39.5853 75.9343C39.5853 71.8669 42.8826 68.5696 46.95 68.5696C51.0174 68.5696 54.3147 71.8669 54.3147 75.9343C54.3147 80.0017 51.0174 83.299 46.95 83.299Z" fill="white"/>
<path d="M46.2051 80.4762C43.6957 80.0689 41.9916 77.7046 42.3989 75.1952C42.8061 72.6859 45.1705 70.9818 47.6798 71.3891C50.1892 71.7963 51.8932 74.1607 51.486 76.67C51.0788 79.1794 48.7144 80.8834 46.2051 80.4762Z" fill="#1C1B1F"/>
<path d="M97.2755 71.471H127.013C125.088 65.0827 119.174 60.424 112.144 60.424C105.142 60.424 99.2003 65.0827 97.2755 71.471Z" fill="#232736"/>
<path d="M100.051 77.906C98.9678 71.2297 103.502 64.939 110.178 63.8555C116.854 62.772 123.145 67.3058 124.229 73.9822C125.312 80.6585 120.778 86.9492 114.102 88.0327C107.425 89.1162 101.135 84.5823 100.051 77.906Z" fill="#1C1B1F"/>
<path d="M105.334 78.759C103.777 75.0012 105.562 70.6929 109.32 69.1363C113.077 67.5797 117.386 69.3642 118.942 73.1221C120.499 76.88 118.714 81.1882 114.957 82.7448C111.199 84.3014 106.89 82.5169 105.334 78.759Z" fill="white"/>
<path d="M107.886 77.7021C106.913 75.3534 108.028 72.6608 110.377 71.6879C112.725 70.715 115.418 71.8304 116.391 74.179C117.364 76.5277 116.248 79.2203 113.9 80.1932C111.551 81.1661 108.858 80.0508 107.886 77.7021Z" fill="#1C1B1F"/>
<path d="M132.565 71.471H162.302C160.377 65.0827 154.463 60.424 147.433 60.424C140.431 60.424 134.489 65.0827 132.565 71.471Z" fill="#232736"/>
<path d="M135.343 77.9044C134.26 71.228 138.794 64.9374 145.47 63.8538C152.146 62.7703 158.437 67.3042 159.521 73.9805C160.604 80.6569 156.07 86.9475 149.394 88.0311C142.717 89.1146 136.427 84.5807 135.343 77.9044Z" fill="#1C1B1F"/>
<path d="M140.625 78.7579C139.068 75 140.853 70.6918 144.611 69.1352C148.368 67.5786 152.677 69.3631 154.233 73.1209C155.79 76.8788 154.005 81.187 150.248 82.7436C146.49 84.3002 142.181 82.5157 140.625 78.7579Z" fill="white"/>
<path d="M143.177 77.7009C142.204 75.3522 143.319 72.6596 145.668 71.6867C148.016 70.7139 150.709 71.8292 151.682 74.1778C152.655 76.5265 151.539 79.2191 149.191 80.192C146.842 81.1649 144.149 80.0496 143.177 77.7009Z" fill="#1C1B1F"/>
<path d="M229.812 71.471H259.521C257.597 65.0827 251.683 60.424 244.653 60.424C237.651 60.424 231.737 65.0827 229.812 71.471Z" fill="#232736"/>
<path d="M232.587 77.9115C231.503 71.2352 236.037 64.9445 242.714 63.861C249.39 62.7775 255.681 67.3113 256.764 73.9877C257.848 80.664 253.314 86.9547 246.637 88.0382C239.961 89.1217 233.67 84.5879 232.587 77.9115Z" fill="#1C1B1F"/>
<path d="M237.87 78.7654C236.314 75.0075 238.098 70.6993 241.856 69.1427C245.614 67.5861 249.922 69.3706 251.479 73.1285C253.035 76.8864 251.251 81.1946 247.493 82.7512C243.735 84.3078 239.427 82.5233 237.87 78.7654Z" fill="white"/>
<path d="M240.422 77.7085C239.449 75.3598 240.565 72.6672 242.913 71.6943C245.262 70.7214 247.955 71.8367 248.927 74.1854C249.9 76.5341 248.785 79.2267 246.436 80.1996C244.088 81.1725 241.395 80.0572 240.422 77.7085Z" fill="#1C1B1F"/>
<path d="M265.101 71.471H294.839C292.914 65.0827 287 60.424 279.97 60.424C272.968 60.424 267.026 65.0827 265.101 71.471Z" fill="#232736"/>
<path d="M267.879 77.9096C266.795 71.2333 271.329 64.9427 278.006 63.8591C284.682 62.7756 290.973 67.3095 292.056 73.9858C293.14 80.6622 288.606 86.9528 281.929 88.0363C275.253 89.1199 268.962 84.586 267.879 77.9096Z" fill="#1C1B1F"/>
<path d="M273.161 78.764C271.605 75.0062 273.389 70.6979 277.147 69.1413C280.905 67.5847 285.213 69.3692 286.77 73.1271C288.327 76.885 286.542 81.1932 282.784 82.7498C279.026 84.3064 274.718 82.5219 273.161 78.764Z" fill="white"/>
<path d="M275.713 77.7071C274.74 75.3584 275.856 72.6657 278.204 71.6929C280.553 70.72 283.246 71.8353 284.218 74.184C285.191 76.5326 284.076 79.2253 281.727 80.1982C279.379 81.171 276.686 80.0557 275.713 77.7071Z" fill="#1C1B1F"/>
<path d="M82.4902 29.7935V58.1364H79.1705V28.064H80.7606C81.7091 28.064 82.4902 28.8451 82.4902 29.7935Z" fill="#4D525B"/>
<path d="M90.6917 0H304.017V58.1085H90.6917V0Z" fill="#C81517"/>
<path d="M65.9198 64.0226H94.0396V77.3013H65.9198V64.0226Z" fill="#5B606B"/>
<path d="M65.9198 73.2843H94.0396V77.2735H65.9198V73.2843Z" fill="#4D525B"/>
<path d="M65.9198 64.0226H94.0396V68.0117H65.9198V64.0226Z" fill="#6E757F"/>
<path d="M90.7476 64.0226V68.0118V73.2843V77.3014H88.4879V73.2843V68.0118V64.0226H90.7476Z" fill="#323948"/>
<path d="M73.647 64.0226V68.0118V73.2843V77.3014H71.3595V73.2843V68.0118V64.0226H73.647Z" fill="#323948"/>
<path d="M1.81351 53.2824V61.2887H6.30485C8.3134 61.2887 9.9314 59.6707 9.9314 57.6622V48.261H3.43152C3.18045 48.6237 2.92939 49.0142 2.73411 49.4048C2.12039 50.5764 1.81351 51.9155 1.81351 53.2824Z" fill="#F29039"/>
<path d="M298.381 2.6781H300.669V55.821H298.381V2.6781Z" fill="#F04925"/>
<path d="M293.025 2.67822H295.313V55.8211H293.025V2.67822Z" fill="#F04925"/>
<path d="M287.641 2.67822H289.929V55.8211H287.641V2.67822Z" fill="#F04925"/>
<path d="M282.257 2.67822H284.545V55.8211H282.257V2.67822Z" fill="#F04925"/>
<path d="M276.873 2.67822H279.161V55.8211H276.873V2.67822Z" fill="#F04925"/>
<path d="M271.489 2.67822H273.777V55.8211H271.489V2.67822Z" fill="#F04925"/>
<path d="M266.105 2.67822H268.393V55.8211H266.105V2.67822Z" fill="#F04925"/>
<path d="M260.721 2.67822H263.009V55.8211H260.721V2.67822Z" fill="#F04925"/>
<path d="M255.337 2.67822H257.625V55.8211H255.337V2.67822Z" fill="#F04925"/>
<path d="M249.953 2.67822H252.241V55.8211H249.953V2.67822Z" fill="#F04925"/>
<path d="M244.569 2.67822H246.856V55.8211H244.569V2.67822Z" fill="#F04925"/>
<path d="M239.213 2.67822H241.5V55.8211H239.213V2.67822Z" fill="#F04925"/>
<path d="M233.829 2.67822H236.117V55.8211H233.829V2.67822Z" fill="#F04925"/>
<path d="M228.445 2.67822H230.732V55.8211H228.445V2.67822Z" fill="#F04925"/>
<path d="M223.061 2.67822H225.349V55.8211H223.061V2.67822Z" fill="#F04925"/>
<path d="M217.677 2.67822H219.964V55.8211H217.677V2.67822Z" fill="#F04925"/>
<path d="M212.293 2.67822H214.58V55.8211H212.293V2.67822Z" fill="#F04925"/>
<path d="M206.909 2.67822H209.196V55.8211H206.909V2.67822Z" fill="#F04925"/>
<path d="M201.524 2.67822H203.812V55.8211H201.524V2.67822Z" fill="#F04925"/>
<path d="M196.141 2.67822H198.428V55.8211H196.141V2.67822Z" fill="#F04925"/>
<path d="M190.785 2.67822H193.072V55.8211H190.785V2.67822Z" fill="#F04925"/>
<path d="M185.4 2.67822H187.688V55.8211H185.4V2.67822Z" fill="#F04925"/>
<path d="M180.017 2.67822H182.304V55.8211H180.017V2.67822Z" fill="#F04925"/>
<path d="M174.632 2.67822H176.92V55.8211H174.632V2.67822Z" fill="#F04925"/>
<path d="M169.249 2.67822H171.536V55.8211H169.249V2.67822Z" fill="#F04925"/>
<path d="M163.864 2.67822H166.152V55.8211H163.864V2.67822Z" fill="#F04925"/>
<path d="M158.481 2.67822H160.768V55.8211H158.481V2.67822Z" fill="#F04925"/>
<path d="M153.096 2.67822H155.384V55.8211H153.096V2.67822Z" fill="#F04925"/>
<path d="M147.712 2.67822H150V55.8211H147.712V2.67822Z" fill="#F04925"/>
<path d="M142.328 2.67822H144.616V55.8211H142.328V2.67822Z" fill="#F04925"/>
<path d="M136.972 2.67822H139.26V55.8211H136.972V2.67822Z" fill="#F04925"/>
<path d="M131.588 2.67822H133.875V55.8211H131.588V2.67822Z" fill="#F04925"/>
<path d="M126.204 2.67822H128.492V55.8211H126.204V2.67822Z" fill="#F04925"/>
<path d="M120.82 2.67822H123.107V55.8211H120.82V2.67822Z" fill="#F04925"/>
<path d="M115.436 2.67822H117.724V55.8211H115.436V2.67822Z" fill="#F04925"/>
<path d="M110.052 2.67822H112.339V55.8211H110.052V2.67822Z" fill="#F04925"/>
<path d="M104.668 2.67822H106.956V55.8211H104.668V2.67822Z" fill="#F04925"/>
<path d="M99.2838 2.67822H101.571V55.8211H99.2838V2.67822Z" fill="#F04925"/>
<path d="M93.9 2.67822H96.1875V55.8211H93.9V2.67822Z" fill="#F04925"/>
<path d="M0.000188828 63.5483V70.5782C0.000188828 72.9215 1.89714 74.8185 4.24045 74.8185H28.0362V67.5654C28.0362 65.8079 28.5105 64.162 29.3752 62.7393H0.809196C0.362852 62.7393 0.000188828 63.1019 0.000188828 63.5483Z" fill="#5B606B"/>
<defs>
<filter id="filter0_f_459_831" x="35.1389" y="19.2657" width="28.1135" height="24.6263" filterUnits="userSpaceOnUse" color-interpolation-filters="sRGB">
<feFlood flood-opacity="0" result="BackgroundImageFix"/>
<feBlend mode="normal" in="SourceGraphic" in2="BackgroundImageFix" result="shape"/>
<feGaussianBlur stdDeviation="2" result="effect1_foregroundBlur_459_831"/>
</filter>
<filter id="filter1_f_459_831" x="60.8596" y="19.2657" width="19.5491" height="24.6263" filterUnits="userSpaceOnUse" color-interpolation-filters="sRGB">
<feFlood flood-opacity="0" result="BackgroundImageFix"/>
<feBlend mode="normal" in="SourceGraphic" in2="BackgroundImageFix" result="shape"/>
<feGaussianBlur stdDeviation="2" result="effect1_foregroundBlur_459_831"/>
</filter>
</defs>
</svg>
