<svg width="32" height="33" viewBox="0 0 32 33" fill="none" xmlns="http://www.w3.org/2000/svg">
<path d="M27 0.23584H5C2.23858 0.23584 0 2.47442 0 5.23584V27.2358C0 29.9973 2.23858 32.2358 5 32.2358H27C29.7614 32.2358 32 29.9973 32 27.2358V5.23584C32 2.47442 29.7614 0.23584 27 0.23584Z" fill="#25D366"/>
<path fill-rule="evenodd" clip-rule="evenodd" d="M21.6 10.5358C20.1 9.03584 18.1 8.23584 16 8.23584C11.6 8.23584 8 11.8358 8 16.2358C8 17.6358 8.40001 19.0358 9.10001 20.2358L8 24.2358L12.2 23.1358C13.4 23.7358 14.7 24.1358 16 24.1358C20.4 24.1358 24 20.5358 24 16.1358C24 14.0358 23.1 12.0358 21.6 10.5358ZM16 22.8358C14.8 22.8358 13.6 22.5358 12.6 21.9358L12.4 21.8358L9.89999 22.5358L10.6 20.1358L10.4 19.8358C9.69999 18.7358 9.39999 17.5358 9.39999 16.3358C9.39999 12.7358 12.4 9.73584 16 9.73584C17.8 9.73584 19.4 10.4358 20.7 11.6358C22 12.9358 22.6 14.5358 22.6 16.3358C22.6 19.8358 19.7 22.8358 16 22.8358ZM19.6 17.8358C19.4 17.7358 18.4 17.2358 18.2 17.2358C18 17.1358 17.9 17.1358 17.8 17.3358C17.7 17.5358 17.3 17.9358 17.2 18.1358C17.1 18.2358 17 18.2358 16.8 18.2358C16.6 18.1358 16 17.9358 15.2 17.2358C14.6 16.7358 14.2 16.0358 14.1 15.8358C14 15.6358 14.1 15.5358 14.2 15.4358C14.3 15.3358 14.4 15.2358 14.5 15.1358C14.6 15.0358 14.6 14.9358 14.7 14.8358C14.8 14.7358 14.7 14.6358 14.7 14.5358C14.7 14.4358 14.3 13.4358 14.1 13.0358C14 12.7358 13.8 12.7358 13.7 12.7358C13.6 12.7358 13.5 12.7358 13.3 12.7358C13.2 12.7358 13 12.7358 12.8 12.9358C12.6 13.1358 12.1 13.6358 12.1 14.6358C12.1 15.6358 12.8 16.5358 12.9 16.7358C13 16.8358 14.3 18.9358 16.3 19.7358C18 20.4358 18.3 20.2358 18.7 20.2358C19.1 20.2358 19.9 19.7358 20 19.3358C20.2 18.8358 20.2 18.4358 20.1 18.4358C20 17.9358 19.8 17.9358 19.6 17.8358Z" fill="white"/>
</svg>
